<?xml version="1.0" standalone="no"?>
<!DOCTYPE svg PUBLIC "-//W3C//DTD SVG 20010904//EN"
 "http://www.w3.org/TR/2001/REC-SVG-20010904/DTD/svg10.dtd">
<svg version="1.0" xmlns="http://www.w3.org/2000/svg"
 width="1024.000000pt" height="1024.000000pt" viewBox="0 0 1024.000000 1024.000000"
 preserveAspectRatio="xMidYMid meet">

<g transform="translate(0.000000,1024.000000) scale(0.100000,-0.100000)"
fill="#000000" stroke="none">
<path d="M10170 9961 c-30 -15 -118 -60 -195 -99 -115 -58 -443 -202 -460
-202 -3 0 -89 -33 -193 -74 -103 -41 -207 -79 -232 -86 -25 -6 -115 -37 -200
-67 -85 -30 -210 -74 -276 -98 -67 -23 -126 -45 -132 -49 -6 -4 -60 -24 -119
-46 -138 -50 -289 -107 -329 -125 -16 -8 -82 -36 -145 -63 -155 -68 -272 -121
-424 -194 -311 -151 -579 -350 -646 -480 -10 -20 -23 -40 -29 -43 -25 -15 -51
-90 -61 -178 -25 -200 31 -363 185 -539 80 -92 179 -167 311 -238 44 -24 97
-54 117 -67 21 -12 41 -23 44 -23 18 0 154 -93 168 -115 26 -39 46 -133 46
-215 0 -130 -67 -331 -136 -405 -12 -14 -39 -49 -59 -79 -53 -81 -280 -275
-385 -330 -19 -10 -57 -31 -85 -46 -128 -73 -260 -123 -400 -152 -83 -17 -238
-5 -334 27 -108 35 -157 66 -205 128 -44 57 -116 193 -116 219 0 9 -4 19 -9
22 -5 3 -12 23 -15 43 -7 38 -10 49 -42 153 -10 30 -27 112 -38 181 l-21 126
27 44 c14 24 27 53 27 64 0 11 13 46 28 77 43 88 67 88 203 -2 30 -20 77 -47
103 -59 27 -13 51 -29 53 -35 3 -7 23 -10 54 -8 43 3 52 8 77 40 15 21 34 44
41 52 13 12 14 12 9 -5 -23 -78 -27 -144 -11 -191 9 -27 24 -56 34 -64 9 -8
21 -23 26 -32 22 -41 275 -168 336 -168 9 0 21 -7 28 -15 11 -13 9 -22 -6 -53
-50 -98 -149 -212 -196 -228 -34 -11 -20 -34 20 -34 41 0 106 38 199 117 128
108 193 194 223 293 8 25 16 50 20 55 14 22 11 153 -4 207 -26 87 -67 140
-181 234 l-105 87 0 59 c0 204 -105 398 -324 598 -324 298 -462 364 -726 345
-125 -9 -195 -34 -310 -110 -192 -128 -342 -301 -456 -523 -19 -36 -38 -70
-42 -74 -5 -5 -25 24 -45 64 -57 115 -94 178 -115 202 -10 11 -38 49 -60 83
-23 34 -63 79 -89 100 -27 20 -69 56 -94 78 -54 47 -158 109 -238 142 -75 31
-188 45 -316 38 -97 -5 -112 -8 -184 -44 -98 -48 -215 -127 -261 -176 -19 -20
-54 -50 -76 -66 -74 -51 -236 -232 -319 -355 l-45 -68 2 -95 c3 -131 -11 -157
-154 -301 -109 -110 -116 -119 -136 -187 -39 -126 -29 -216 41 -373 44 -101
61 -124 126 -175 31 -23 67 -53 81 -65 68 -60 163 -109 175 -90 6 9 -3 28 -47
100 -56 92 -98 196 -98 243 0 13 9 17 43 17 79 0 128 25 213 108 136 133 349
289 442 325 49 20 149 22 186 6 36 -17 73 -78 89 -148 12 -52 12 -75 1 -151
-7 -49 -20 -111 -28 -137 -53 -171 -69 -216 -96 -288 -60 -151 -87 -199 -137
-241 -67 -57 -94 -69 -213 -99 -8 -2 -27 -8 -41 -13 -46 -18 -247 -12 -309 9
-30 10 -62 19 -70 19 -8 0 -28 7 -44 15 -15 8 -37 15 -47 15 -24 0 -192 87
-283 147 -219 144 -350 273 -463 453 -42 67 -83 180 -83 230 0 16 -5 32 -10
35 -6 4 -8 10 -5 14 2 5 0 35 -5 67 -9 52 -7 69 15 141 24 75 30 85 73 116 27
19 70 47 98 62 27 15 54 31 59 35 6 4 44 25 85 45 101 51 224 133 284 189 27
25 53 46 58 46 5 0 7 4 4 8 -2 4 8 22 22 39 92 106 143 205 167 320 17 88 13
224 -10 288 -25 71 -113 202 -174 257 -108 100 -242 192 -406 280 -103 56
-320 162 -395 193 -36 15 -87 38 -115 51 -68 31 -174 76 -270 114 -44 17 -104
42 -133 55 -29 14 -57 25 -63 25 -6 0 -25 7 -42 15 -18 8 -52 21 -77 29 -25 8
-70 24 -100 36 -30 12 -80 30 -110 39 -30 10 -134 48 -231 84 -96 36 -206 73
-243 81 -37 9 -92 27 -122 41 -30 14 -57 25 -60 25 -3 0 -30 11 -60 25 -30 14
-59 25 -65 25 -6 0 -25 6 -42 14 -18 8 -61 27 -97 41 -36 15 -83 35 -105 45
-22 10 -61 27 -88 38 l-47 21 0 -98 c0 -113 3 -119 102 -175 67 -38 140 -95
122 -96 -5 0 -57 16 -114 35 -57 19 -105 35 -107 35 -2 0 -3 -43 -3 -96 0 -94
0 -96 30 -121 55 -46 364 -242 460 -292 25 -13 61 -35 80 -50 19 -15 46 -32
60 -38 20 -9 -3 -12 -117 -12 -150 -1 -251 14 -326 48 -23 10 -71 31 -107 46
-36 15 -68 32 -72 39 -4 6 -8 -37 -8 -96 l0 -106 33 -20 c17 -11 70 -41 117
-66 77 -41 82 -46 52 -46 -18 0 -49 7 -69 15 -19 8 -57 15 -84 15 l-49 0 0
-269 0 -268 48 4 c37 3 57 -1 92 -21 47 -26 76 -40 225 -111 50 -24 106 -54
125 -67 19 -13 71 -43 115 -67 44 -24 110 -61 147 -82 36 -22 69 -39 72 -39 3
0 27 -13 53 -29 27 -16 84 -44 128 -61 44 -18 94 -39 112 -46 17 -8 34 -14 38
-14 4 0 46 -18 93 -41 80 -38 186 -75 277 -98 22 -5 72 -19 110 -30 60 -18 63
-20 25 -15 -25 2 -98 9 -162 13 -64 5 -157 18 -205 30 -48 11 -101 22 -118 25
-62 11 -321 77 -355 90 -19 8 -75 26 -125 41 -94 28 -186 59 -220 74 -138 60
-302 143 -352 178 -34 24 -68 43 -77 43 -8 0 -18 5 -21 10 -22 35 -25 -14 -23
-322 l3 -333 28 -3 c37 -4 35 -22 -3 -22 -53 0 -32 -20 23 -22 131 -5 174 -17
162 -46 -21 -50 -27 -93 -22 -149 l6 -63 -57 0 c-35 0 -74 8 -100 20 l-42 19
0 -79 c0 -44 1 -80 3 -80 22 0 272 -42 297 -50 51 -15 163 -73 167 -87 4 -12
-24 -5 -137 36 -30 10 -107 28 -170 40 -63 11 -125 23 -138 27 -12 3 -22 2
-22 -3 0 -5 44 -20 98 -32 161 -38 254 -69 312 -106 30 -19 49 -35 43 -35 -23
0 -14 -18 15 -28 l27 -10 -25 -10 c-23 -10 -22 -11 18 -11 23 -1 42 -5 42 -10
0 -6 20 -13 45 -17 53 -7 51 -19 -3 -28 -22 -3 -45 -13 -52 -21 -9 -11 -31
-15 -79 -14 -58 0 -91 4 -205 23 -16 3 -63 14 -105 25 -42 10 -88 22 -103 25
l-28 6 0 -170 c0 -114 4 -170 11 -170 6 0 8 -8 4 -19 -3 -11 0 -23 6 -27 9 -5
7 -11 -5 -20 -10 -7 -16 -20 -14 -30 3 -18 66 -59 76 -50 2 3 14 -6 24 -20 23
-29 17 -45 -7 -20 -18 18 -35 21 -35 7 0 -5 8 -12 18 -14 16 -4 16 -5 -1 -6
-10 0 -20 6 -23 14 -4 8 -14 15 -24 15 -10 0 -21 6 -23 13 -3 6 -6 2 -6 -10
-1 -15 6 -23 22 -26 l22 -4 -22 -2 c-13 0 -23 -7 -23 -15 0 -15 27 -30 48 -27
6 1 20 -3 30 -8 14 -9 13 -10 -11 -11 -16 0 -37 5 -48 11 -18 9 -20 8 -17 -12
3 -19 10 -23 51 -25 45 -1 66 -8 56 -18 -2 -3 -28 -6 -57 -8 -50 -3 -52 -4
-52 -32 l0 -29 149 7 c147 7 151 6 200 -18 27 -14 89 -64 138 -111 l88 -85
-60 26 c-33 14 -85 35 -115 45 -30 11 -62 22 -70 26 -20 8 -22 9 -130 32 -101
22 -200 27 -200 11 0 -5 17 -10 38 -10 20 -1 60 -7 87 -15 55 -15 44 -18 -62
-15 -111 3 -67 -16 65 -27 89 -7 140 -17 172 -31 24 -12 46 -19 49 -16 7 7
-31 44 -48 45 -10 0 -11 2 -4 6 27 10 253 -114 253 -139 0 -15 -27 -8 -45 12
-10 11 -23 19 -29 17 -6 -3 -26 6 -44 20 -17 13 -32 22 -32 20 0 -16 33 -63
47 -69 29 -11 45 -9 37 5 -4 6 3 3 15 -8 20 -18 21 -20 6 -31 -33 -25 -273
-97 -376 -113 -89 -15 -108 -19 -119 -26 -6 -3 -10 -53 -10 -112 0 -100 1
-105 18 -91 9 8 51 28 92 43 41 15 89 33 106 40 108 46 437 126 465 113 3 -2
13 3 21 9 11 9 50 12 143 8 70 -2 129 -6 131 -8 2 -2 -40 -16 -92 -31 -53 -15
-117 -39 -143 -53 -25 -14 -124 -65 -220 -114 -95 -49 -170 -89 -165 -89 5 0
70 25 144 55 302 124 399 136 441 54 11 -22 24 -39 29 -39 18 0 10 -22 -10
-27 -11 -3 -20 -10 -20 -15 0 -5 -26 -20 -57 -34 -60 -27 -396 -141 -498 -169
-33 -9 -82 -23 -110 -31 -70 -21 -242 -64 -254 -64 -5 0 -12 19 -14 43 -2 23
-4 -6 -5 -65 -2 -103 2 -119 24 -99 11 10 105 34 110 28 9 -8 -9 -37 -21 -37
-24 0 -55 -51 -55 -89 0 -62 19 -108 57 -142 126 -110 351 -136 632 -73 35 8
66 12 69 9 3 -2 -3 -25 -12 -50 -22 -57 -42 -186 -38 -247 3 -47 3 -48 38 -48
42 0 93 -20 116 -47 17 -19 16 -20 -61 -56 -43 -20 -85 -37 -94 -37 -8 0 -17
-5 -19 -12 -7 -20 -247 17 -333 52 -75 30 -289 46 -367 27 l-48 -12 0 -85 0
-85 47 -1 c205 -4 250 -9 289 -35 74 -49 157 -83 204 -84 25 0 55 -6 67 -13
12 -7 57 -12 101 -12 l80 0 21 -45 c12 -25 21 -59 21 -77 1 -18 7 -51 15 -73
8 -22 15 -69 16 -105 1 -36 5 -78 9 -95 l8 -30 1 37 c0 20 6 40 13 44 17 11 3
-152 -22 -250 -18 -71 -53 -148 -83 -186 -38 -46 -133 -63 -187 -33 -29 16
-39 31 -60 92 -19 54 -36 84 -70 118 -44 44 -46 45 -97 40 -29 -3 -53 -2 -53
2 0 18 28 30 75 33 l50 3 -38 9 c-81 18 -142 -45 -142 -148 0 -76 23 -112 99
-155 54 -30 110 -89 140 -148 20 -40 79 -77 110 -69 20 5 35 -6 90 -64 36 -39
69 -82 72 -97 4 -15 19 -37 33 -50 18 -17 22 -26 14 -30 -27 -10 -11 -21 22
-16 23 4 41 1 53 -9 9 -7 30 -20 45 -28 16 -8 33 -22 38 -32 6 -10 14 -16 20
-13 5 4 9 1 9 -4 0 -6 -4 -11 -10 -11 -5 0 -10 -10 -10 -21 0 -18 2 -19 15 -9
9 8 15 8 15 2 0 -6 3 -18 7 -28 5 -14 2 -16 -15 -12 -18 5 -22 1 -27 -26 -4
-17 -5 -38 -3 -46 5 -25 -104 -70 -220 -90 -59 -10 -110 -16 -114 -14 -4 3
-15 0 -25 -5 -10 -6 -39 -13 -64 -16 -102 -13 -244 -149 -280 -267 -35 -113
-72 -430 -65 -547 6 -96 23 -148 83 -247 53 -89 132 -164 214 -204 62 -31 244
-100 263 -100 15 0 -37 51 -101 100 -32 24 -74 63 -93 87 -19 24 -40 49 -46
56 -28 32 -68 105 -90 165 -22 57 -25 81 -25 199 0 106 5 148 21 204 29 95 43
103 163 94 106 -7 215 11 275 46 61 36 115 72 146 97 23 19 31 20 44 10 30
-25 72 -135 72 -189 0 -28 5 -69 12 -90 13 -46 68 -113 109 -134 49 -26 73
-86 73 -188 l1 -87 37 -34 c21 -19 47 -37 58 -41 54 -17 87 -184 50 -254 -5
-9 -18 -37 -30 -63 -27 -59 -100 -125 -147 -134 -96 -18 -236 30 -285 97 -25
34 -38 29 -38 -14 0 -40 53 -98 121 -133 26 -13 52 -31 56 -39 24 -41 262 -44
371 -3 69 26 169 87 203 125 13 15 40 49 58 76 19 26 38 47 42 47 4 0 8 8 8
17 -1 10 7 38 16 62 18 50 23 187 7 217 -5 11 -12 60 -14 109 -4 60 -13 108
-27 145 -22 53 -142 299 -182 370 -65 117 -92 235 -61 266 34 34 95 54 170 54
39 0 72 -3 72 -7 -1 -5 -14 -24 -30 -43 -42 -49 -37 -61 8 -18 45 44 92 68
130 68 16 0 43 7 61 16 43 21 111 30 111 15 0 -7 -10 -25 -21 -41 -20 -26 -21
-37 -17 -147 4 -102 9 -128 35 -191 28 -67 31 -71 36 -44 3 15 15 39 27 53
l21 24 -6 -28 c-6 -30 11 -107 24 -107 4 0 13 46 20 103 7 56 19 121 27 143
16 41 16 42 89 54 81 14 87 13 240 -47 49 -20 95 -42 103 -49 23 -24 35 -16
28 17 -5 24 -3 30 8 26 7 -3 23 1 34 9 23 16 25 13 37 -56 6 -32 13 -38 83
-70 118 -54 117 -52 120 -203 l3 -128 -63 -57 c-35 -31 -79 -73 -98 -93 -30
-31 -125 -115 -244 -215 -37 -32 -33 -55 37 -182 29 -53 62 -117 72 -142 11
-25 27 -58 36 -75 32 -57 114 -201 131 -231 10 -16 29 -53 44 -81 l25 -53
1958 0 1958 0 49 98 c27 53 60 115 73 137 14 22 33 54 43 70 28 47 137 271
174 360 l35 80 -28 23 c-16 13 -57 44 -93 69 -36 25 -120 101 -187 167 l-123
121 0 147 c0 137 1 148 20 158 16 9 20 8 20 -5 0 -9 5 -13 11 -10 6 4 8 13 5
21 -3 7 7 22 23 34 34 24 54 27 25 4 -17 -14 -17 -15 -1 -10 10 3 23 6 28 6 4
0 6 6 3 14 -11 29 184 74 201 46 3 -5 27 4 54 20 27 17 52 30 57 30 6 0 33 15
62 34 50 32 54 33 109 24 82 -13 113 -35 153 -110 24 -44 25 -77 5 -104 -17
-22 -20 -60 -5 -69 12 -8 130 111 130 131 0 7 7 20 15 28 11 11 13 21 7 33 -5
10 -9 61 -10 115 -1 107 8 122 54 91 20 -13 40 -15 102 -9 43 3 93 11 112 16
19 6 62 10 96 10 51 0 67 -5 100 -29 50 -35 77 -76 69 -102 -11 -34 -75 -162
-107 -214 -111 -181 -188 -384 -188 -497 0 -40 -7 -95 -15 -122 -20 -67 -19
-114 6 -190 39 -119 161 -249 289 -307 129 -59 302 -65 406 -14 53 26 184 137
184 156 0 4 -4 19 -10 34 l-10 26 -30 -35 c-60 -67 -213 -120 -268 -92 -31 16
-182 168 -182 183 0 6 -11 22 -25 37 -14 15 -23 31 -21 35 8 13 9 85 2 116 -6
29 -4 31 55 59 33 16 81 49 106 74 43 41 45 46 38 80 -15 68 -11 113 10 125
34 18 55 49 87 122 38 88 58 152 58 187 0 31 33 113 50 123 11 7 33 51 34 70
2 19 39 17 55 -2 9 -11 45 -40 81 -65 111 -78 240 -104 385 -77 110 20 107 21
123 -41 8 -30 23 -104 35 -163 18 -97 19 -117 9 -180 -7 -41 -26 -98 -44 -132
-17 -33 -38 -73 -47 -90 -41 -84 -112 -160 -226 -245 -85 -63 -86 -64 -58 -56
12 4 30 9 40 11 68 14 169 54 245 97 88 50 147 106 196 188 23 39 62 140 67
173 2 12 6 42 10 67 7 45 -1 102 -30 232 -8 37 -17 100 -20 140 -14 167 -46
285 -90 331 -39 41 -179 112 -260 133 -33 8 -115 19 -182 24 -75 6 -134 15
-153 25 -46 24 -63 67 -55 134 4 31 11 63 16 72 6 12 3 21 -14 32 -18 12 -20
17 -9 28 9 10 15 10 20 3 9 -13 42 -26 42 -16 0 5 21 14 48 21 26 6 54 17 62
24 34 27 68 85 75 127 8 47 17 59 73 99 27 19 35 21 48 11 12 -11 13 -10 8 4
-4 12 0 16 15 16 12 0 24 6 27 14 5 12 37 27 48 23 2 -1 15 12 27 28 13 17 26
32 29 35 3 3 25 30 50 60 86 106 144 154 153 127 2 -7 3 -2 1 9 -2 13 2 24 11
28 8 3 15 1 15 -5 0 -6 5 -7 11 -3 8 4 6 10 -6 17 -14 7 -15 11 -4 18 8 5 21
2 33 -9 19 -17 19 -17 0 16 -10 19 -35 49 -54 68 l-34 35 -86 -3 -85 -3 -5
-55 c-7 -65 -16 -83 -67 -132 -75 -72 -173 -105 -237 -79 -26 10 -28 14 -21
48 8 42 23 63 107 151 33 34 56 62 52 62 -4 0 -34 -21 -66 -46 -33 -25 -61
-44 -63 -42 -2 2 2 15 9 28 7 16 20 25 34 24 20 -1 22 3 17 27 -5 23 0 31 29
54 20 15 33 31 31 36 -3 4 5 13 17 19 22 11 22 10 4 -4 -11 -9 -16 -16 -10
-16 17 0 32 15 35 34 2 11 10 21 18 24 10 3 12 0 7 -14 -5 -12 -4 -16 3 -9 5
6 11 21 13 34 1 13 20 38 41 55 38 30 39 30 53 11 8 -11 12 -25 10 -31 -3 -8
7 -10 33 -7 51 7 128 -42 178 -112 49 -70 118 -275 91 -275 -5 0 0 -17 12 -37
17 -29 23 -58 26 -123 l4 -85 -18 90 c-10 55 -28 109 -45 138 -15 26 -30 47
-32 47 -2 0 2 -19 10 -42 40 -122 48 -202 42 -403 -3 -108 -10 -201 -15 -208
-5 -7 -13 -30 -17 -52 -3 -21 -15 -56 -26 -77 -20 -39 -25 -68 -11 -68 11 0
141 156 149 178 3 10 12 24 18 32 27 33 47 166 52 345 5 169 4 187 -20 285
-31 129 -74 223 -142 315 -71 95 -96 115 -200 160 -118 51 -161 52 -232 4 -28
-19 -64 -50 -80 -69 -15 -18 -53 -61 -83 -94 -31 -34 -66 -76 -78 -93 -13 -18
-28 -33 -33 -33 -14 0 -39 -26 -39 -40 0 -13 -24 -40 -36 -40 -4 0 1 10 12 22
17 19 17 21 2 15 -12 -4 -18 -1 -18 9 0 8 -4 13 -8 10 -5 -3 -9 1 -9 9 0 7 11
19 24 26 52 28 71 82 78 224 7 150 29 264 56 299 22 28 91 52 169 59 94 9 189
36 300 87 141 64 181 74 293 68 112 -6 164 -25 173 -65 7 -27 46 -137 65 -178
5 -11 13 -48 18 -82 5 -34 14 -70 20 -81 12 -23 17 -265 6 -344 -4 -32 -5 -58
-1 -58 10 0 55 161 67 240 9 57 9 108 0 210 -6 74 -13 158 -15 185 l-4 50 24
-75 c41 -125 45 -306 10 -475 -6 -29 -6 -29 5 -5 6 14 12 32 14 40 2 8 14 44
26 80 20 55 24 83 23 175 -2 121 -11 165 -53 258 -16 34 -38 82 -48 108 -39
89 -106 143 -230 185 -80 28 -245 24 -383 -9 -156 -38 -146 -36 -225 -47 -38
-6 -99 -17 -135 -25 -36 -8 -100 -19 -142 -24 -51 -6 -99 -19 -140 -39 -76
-37 -84 -44 -129 -107 -31 -44 -39 -69 -63 -192 -15 -77 -29 -154 -31 -169 -2
-16 -4 -29 -5 -29 -1 0 -3 -9 -5 -20 -18 -100 -44 -207 -60 -238 -15 -32 -16
-44 -6 -75 8 -27 9 -51 1 -92 -15 -74 -27 -157 -40 -264 -13 -110 -36 -224
-58 -292 l-17 -51 -66 5 c-37 2 -98 -1 -136 -9 -63 -12 -66 -14 -40 -23 15 -5
27 -13 27 -17 0 -13 -73 9 -101 30 -36 27 -43 26 -58 -5 -10 -22 -16 -25 -44
-19 -17 3 -65 22 -105 41 -55 27 -82 48 -114 87 -102 129 -177 274 -296 572
-8 22 -24 60 -35 85 -11 25 -38 99 -59 165 -21 66 -50 137 -63 157 -14 21 -25
40 -25 43 0 9 -94 130 -103 132 -4 1 -21 4 -37 8 l-30 7 0 106 0 106 51 -75
c69 -100 193 -211 268 -241 39 -16 89 -11 126 12 42 26 47 25 34 -3 -6 -13
-25 -28 -42 -33 -26 -7 -31 -13 -29 -34 5 -34 22 -49 60 -54 65 -7 128 53 201
194 38 73 42 87 37 130 -3 27 -10 59 -15 72 -4 13 -11 42 -15 66 -7 50 -13 51
84 -16 111 -78 184 -107 265 -107 99 0 200 51 247 124 23 35 26 161 6 222
l-15 47 46 -27 c64 -38 96 -48 176 -60 194 -28 250 -24 302 22 16 14 30 18 53
14 16 -4 41 -1 55 5 24 11 25 15 25 97 0 71 -4 95 -25 136 -13 28 -25 67 -25
88 0 43 14 47 76 20 32 -13 75 -17 235 -17 187 -1 198 0 250 24 58 26 183 121
193 146 14 38 4 60 -51 111 -54 51 -56 53 -29 53 15 0 82 -7 149 -16 163 -21
349 -16 403 13 l39 20 3 304 2 305 -137 13 c-234 21 -459 59 -598 101 -38 12
-97 29 -129 39 -46 14 -65 25 -83 52 -16 23 -33 36 -56 39 l-32 5 49 30 c44
26 115 47 256 76 25 5 95 12 155 17 l110 8 -70 7 c-38 4 -131 14 -205 22 -74
9 -150 15 -167 15 -44 0 -41 10 10 41 90 54 78 53 278 29 101 -12 195 -23 209
-25 14 -1 27 -3 30 -4 5 -3 229 -35 328 -47 l52 -7 0 70 0 70 -87 12 c-115 16
-124 17 -218 40 -44 11 -123 29 -175 42 -52 12 -96 22 -97 23 -2 2 3 14 10 29
14 31 24 32 127 13 150 -29 440 -45 440 -26 0 14 -13 18 -95 24 -38 3 -113 15
-165 25 -53 11 -120 23 -150 27 -47 6 -90 27 -79 38 2 2 41 14 87 26 45 12 85
26 88 31 8 13 -21 11 -52 -3 -22 -10 -28 -10 -32 0 -2 6 -12 12 -23 12 -26 0
-59 35 -59 62 l0 21 240 -6 240 -6 0 38 c0 39 0 39 -71 67 -38 15 -72 31 -75
36 -3 4 29 8 70 8 l76 0 0 345 c0 190 -2 345 -5 345 -3 0 -16 -7 -29 -15 -42
-28 -235 -91 -286 -93 -56 -3 -240 -39 -306 -60 l-32 -10 -6 48 c-4 27 -2 69
4 95 6 25 8 50 5 54 -2 5 -23 11 -45 15 -48 8 -45 29 4 25 17 -2 36 0 42 3 25
16 127 48 229 73 61 15 119 31 130 36 56 24 117 42 185 55 118 22 110 15 110
100 0 56 -3 74 -14 74 -27 0 -311 -31 -323 -35 -28 -10 -9 14 62 78 54 49 92
74 137 91 35 13 80 31 101 40 l37 16 0 81 c0 70 -2 80 -15 69 -8 -6 -46 -27
-85 -45 -38 -19 -70 -39 -70 -45 0 -5 -4 -10 -9 -10 -5 0 -6 14 -1 33 40 152
58 359 42 481 -7 58 -7 66 5 50 48 -66 104 -310 88 -384 -6 -28 -5 -29 17 -21
l23 8 3 242 c1 132 0 241 -3 241 -2 0 -46 -14 -97 -31 -80 -27 -108 -32 -200
-33 -59 0 -110 3 -114 7 -10 9 26 47 55 59 13 5 61 16 105 25 60 12 93 25 128
50 26 19 47 37 46 41 -1 4 2 15 5 25 4 9 9 24 12 32 3 11 13 13 35 9 l30 -6 0
78 0 79 -53 23 c-28 12 -79 27 -112 32 -67 12 -244 15 -275 5 -11 -3 -25 -3
-31 0 -6 4 27 30 73 57 46 28 108 68 140 89 31 22 61 39 67 39 6 0 11 5 11 10
0 6 13 4 30 -5 30 -16 30 -15 18 5 -7 11 -16 20 -20 20 -4 0 6 14 24 30 17 17
37 30 45 30 7 0 16 7 19 15 5 12 10 13 20 4 11 -9 14 -6 15 17 0 16 3 23 6 17
17 -43 23 10 23 201 l0 215 -100 -76 c-56 -41 -104 -72 -108 -68 -4 4 4 14 17
24 13 9 37 30 55 48 17 18 48 46 70 62 21 17 33 31 27 31 -22 0 -91 -40 -103
-60 -12 -18 -45 -31 -170 -64 -90 -23 -150 -35 -253 -51 -55 -8 -111 -18 -125
-21 -25 -5 -25 -5 -5 11 11 9 124 68 251 130 126 63 246 125 266 138 19 13 67
41 106 62 l72 37 0 104 c0 57 -3 104 -7 103 -5 0 -33 -13 -63 -28z m-136 -579
c-32 -25 -73 -94 -124 -207 -25 -55 -50 -107 -55 -115 -20 -30 -266 -152 -360
-179 -49 -14 -87 -16 -205 -12 -86 4 -145 10 -145 16 0 6 50 35 110 65 127 64
211 110 275 151 25 15 79 47 120 69 94 50 131 71 167 96 15 10 44 26 63 35 19
9 62 35 94 57 58 41 102 59 60 24z m-155 -597 c73 -16 141 -39 141 -49 0 -3
-95 -4 -211 -3 -154 1 -202 5 -178 11 19 6 39 17 46 25 10 13 12 14 13 2 0
-12 2 -12 13 2 6 9 28 18 47 20 19 2 40 5 45 5 6 1 43 -5 84 -13z m79 -75 c54
0 92 -4 92 -10 0 -5 -8 -10 -17 -10 -14 0 -12 -3 6 -13 13 -6 25 -19 27 -27 1
-8 5 -28 9 -43 7 -26 5 -28 -16 -25 -19 2 -25 10 -27 35 -2 24 -9 34 -25 38
-42 10 -184 22 -225 20 -23 -1 -42 0 -42 4 0 3 -27 4 -60 3 -94 -6 -72 15 25
23 46 4 91 5 100 1 8 -3 15 0 15 5 0 7 9 9 23 5 12 -3 64 -6 115 -6z m-9169
-71 c124 -42 124 -42 165 7 l37 44 52 -31 c45 -26 143 -75 332 -164 28 -13 95
-56 150 -96 55 -39 124 -85 152 -101 53 -30 85 -59 47 -43 -10 4 -41 16 -67
26 -73 29 -203 96 -263 136 -30 20 -56 34 -59 32 -9 -9 177 -174 255 -226 100
-66 389 -207 500 -243 105 -35 73 -38 -85 -11 -239 42 -415 91 -591 166 -45
19 -87 35 -94 35 -7 0 -65 26 -129 57 -64 31 -161 75 -215 98 -104 45 -383
231 -392 264 -3 9 -14 35 -24 57 -10 23 -17 44 -14 47 7 6 169 -30 243 -54z
m8431 36 c0 -65 -77 -154 -198 -232 -31 -20 -76 -49 -99 -65 -24 -16 -66 -37
-95 -47 -49 -17 -320 -143 -380 -176 -14 -8 -38 -15 -52 -15 -15 0 -48 -10
-74 -23 -26 -13 -81 -33 -122 -45 -41 -12 -111 -33 -155 -46 -95 -29 -157 -43
-245 -56 -36 -5 -92 -14 -124 -19 -33 -6 -61 -9 -63 -7 -2 2 29 14 68 26 89
27 242 103 331 163 36 25 110 69 164 97 55 29 108 60 119 69 11 10 34 23 50
30 35 15 127 72 123 77 -6 5 -191 -35 -233 -50 -22 -8 -49 -15 -60 -15 -17 0
-16 3 10 24 17 14 34 25 39 25 6 0 19 9 30 19 29 27 158 92 236 120 74 26 75
26 194 100 l90 54 35 -41 36 -41 65 15 c36 8 72 18 80 21 8 3 17 7 20 7 3 1
34 8 70 15 36 8 74 20 85 28 32 21 55 17 55 -12z m-8800 -216 c19 -5 109 -49
200 -97 174 -94 188 -102 315 -177 44 -27 107 -63 140 -80 126 -67 172 -95
189 -114 10 -11 41 -28 68 -37 27 -9 85 -36 128 -60 43 -24 81 -44 86 -44 4 0
15 -7 24 -15 9 -9 68 -43 131 -76 99 -52 109 -60 74 -55 -45 5 -64 10 -121 25
-21 6 -97 25 -169 42 -71 17 -155 39 -185 48 -97 32 -205 65 -210 66 -20 3
-207 69 -214 76 -6 5 -19 9 -30 9 -30 0 -334 140 -392 181 -96 66 -209 190
-239 263 -20 47 -19 54 8 59 29 6 153 -3 197 -14z m9148 -26 c5 -47 -28 -101
-105 -174 -140 -130 -315 -224 -593 -316 -25 -8 -54 -19 -65 -24 -33 -14 -280
-92 -365 -114 -50 -14 -217 -53 -417 -98 -35 -7 -63 -10 -63 -7 0 4 28 20 63
34 52 23 182 92 237 126 8 5 60 31 115 58 55 27 109 54 120 60 11 6 124 71
250 143 127 72 241 140 255 149 14 10 62 36 105 58 44 21 103 51 130 67 103
57 164 75 250 72 l80 -2 3 -32z m502 -83 c0 -5 -2 -10 -4 -10 -3 0 -8 5 -11
10 -3 6 -1 10 4 10 6 0 11 -4 11 -10z m-219 -197 c6 -16 9 -52 6 -82 -3 -47
-9 -58 -38 -83 -49 -41 -284 -173 -392 -220 -51 -22 -110 -48 -132 -58 -22 -9
-67 -25 -100 -35 -61 -18 -290 -90 -335 -106 -14 -4 -59 -15 -100 -23 -41 -8
-88 -19 -105 -25 -34 -10 -169 -42 -200 -47 -26 -4 -153 -26 -215 -38 -14 -2
-47 -7 -75 -10 -44 -6 -37 -2 55 32 88 32 311 125 425 177 17 7 53 20 81 28
47 14 90 35 272 133 80 42 155 85 168 95 14 11 213 121 244 135 14 6 70 33
125 60 101 49 226 91 278 93 21 1 30 -5 38 -26z m-5627 -58 c103 -51 286 -183
286 -207 0 -4 -15 -2 -32 3 -127 39 -238 52 -238 29 0 -5 24 -10 53 -11 28 0
70 -4 92 -8 31 -7 17 -9 -68 -10 -160 -2 -131 -20 38 -24 106 -3 150 -8 183
-21 51 -22 114 -91 161 -177 l34 -62 -69 6 c-181 16 -210 20 -224 31 -9 7 -9
3 3 -10 16 -20 16 -21 0 -35 -10 -9 -31 -21 -46 -27 -38 -16 -97 -62 -97 -74
0 -6 10 -4 23 5 84 55 278 61 397 13 35 -14 67 -29 71 -34 4 -4 10 -28 14 -54
l7 -48 -71 0 c-93 0 -271 -21 -271 -31 0 -5 30 -9 68 -9 37 0 79 -6 94 -14 14
-8 43 -19 65 -26 38 -13 123 -58 123 -66 0 -2 -17 -2 -37 2 -33 5 -43 1 -73
-26 -23 -21 -28 -29 -15 -25 10 3 37 8 60 12 48 6 80 -16 90 -63 l6 -31 -108
5 c-59 2 -117 9 -128 15 -26 13 -85 27 -85 19 0 -10 93 -92 105 -92 6 0 21 -8
35 -17 13 -9 31 -18 40 -18 8 -1 45 -8 83 -15 52 -11 67 -18 67 -31 0 -17 -3
-17 -47 -2 -27 9 -51 20 -54 26 -9 13 -20 -8 -13 -26 7 -19 63 -47 80 -40 7 2
21 0 31 -6 10 -6 12 -11 6 -11 -8 0 -13 -14 -13 -36 l0 -37 -62 6 c-35 3 -98
13 -141 22 -43 9 -84 14 -90 12 -6 -2 17 -18 51 -37 34 -18 62 -39 62 -46 0
-8 6 -14 14 -14 7 0 34 -9 59 -20 25 -11 66 -23 91 -26 l46 -7 0 -54 c0 -46 3
-54 17 -51 25 5 40 54 25 79 -11 16 -10 20 5 25 10 3 56 24 102 46 87 42 163
59 175 39 11 -17 29 -13 22 5 -9 25 4 66 20 60 21 -8 17 8 -6 22 -18 11 -20
10 -20 -13 0 -25 -14 -33 -25 -15 -10 16 -94 12 -170 -9 -138 -37 -127 -39
-123 16 3 41 7 50 30 61 15 7 37 31 49 52 22 38 25 40 71 40 26 0 48 5 48 10
0 6 -30 10 -67 11 -38 0 -77 4 -87 8 -18 7 -18 8 -2 14 10 4 25 3 34 -2 22
-11 232 -19 232 -9 0 5 9 8 20 8 17 0 20 7 20 40 0 22 -4 40 -10 40 -5 0 -10
-12 -10 -27 l0 -28 -152 3 c-84 2 -157 8 -162 13 -6 5 -4 21 6 41 8 18 19 48
22 66 4 17 10 32 13 32 3 0 54 -14 112 -31 58 -17 121 -35 139 -39 18 -4 39
-14 47 -20 8 -7 15 -9 14 -4 -2 31 -149 104 -209 104 -11 0 -20 4 -20 8 0 16
177 92 214 92 20 1 20 1 2 12 -13 7 -62 9 -154 4 -73 -4 -132 -3 -130 1 53
126 51 123 88 133 89 24 207 41 261 37 36 -2 57 0 56 7 -1 5 12 13 28 17 l30
7 -32 1 c-18 0 -33 6 -33 13 0 6 15 24 33 40 30 27 30 29 7 22 -14 -4 -38 -16
-54 -27 -22 -16 -42 -20 -88 -18 -33 1 -84 -3 -115 -9 -30 -7 -57 -9 -60 -6
-9 8 18 106 28 101 4 -3 15 9 22 28 19 45 73 88 155 122 60 25 79 29 189 30
68 1 125 4 128 7 12 12 -60 28 -124 28 -36 0 -100 -6 -141 -14 -41 -8 -75 -14
-76 -13 -3 3 164 128 221 166 104 69 143 84 241 89 75 4 105 1 165 -17 149
-45 318 -160 507 -345 128 -125 194 -208 188 -238 -13 -69 -44 -105 -101 -118
-50 -11 -72 -1 -104 46 -21 31 -39 43 -87 59 -71 24 -86 33 -78 47 4 6 -1 6
-14 -1 -14 -7 -23 -8 -27 -1 -3 5 -2 10 4 10 11 0 -26 70 -44 83 -5 4 -19 5
-30 3 -14 -4 -27 4 -43 28 -44 64 -62 78 -94 72 -18 -3 -27 -2 -23 4 3 6 -5
10 -19 10 -18 0 -26 -5 -26 -17 -1 -15 -3 -15 -20 5 -27 33 -31 14 -7 -37 15
-33 40 -58 98 -100 43 -31 78 -62 78 -68 1 -7 13 -15 29 -18 50 -11 111 -46
132 -75 29 -40 25 -43 -17 -14 -44 29 -59 14 -18 -18 14 -11 31 -30 36 -42 5
-11 16 -31 25 -43 9 -13 13 -23 8 -23 -12 1 -74 84 -74 98 0 7 -7 12 -15 12
-12 0 -14 -4 -5 -19 5 -11 14 -22 19 -26 5 -3 12 -18 16 -34 3 -15 17 -34 30
-41 14 -7 25 -17 25 -22 0 -19 -21 -5 -67 44 -26 29 -60 63 -75 77 -16 14 -28
31 -28 37 0 22 -32 74 -45 74 -8 0 -18 -7 -23 -17 -6 -10 -16 -14 -26 -10 -27
11 -17 -7 17 -29 17 -12 42 -41 54 -65 12 -24 50 -71 85 -103 35 -32 75 -69
91 -84 26 -24 38 -72 18 -72 -5 0 -30 24 -55 54 -44 50 -51 55 -139 80 -51 14
-108 26 -127 26 -19 0 -55 7 -80 16 -33 11 -74 15 -150 13 -58 -2 -111 0 -118
5 -30 18 -42 -2 -42 -68 0 -51 -4 -67 -17 -75 -16 -9 -16 -10 -2 -11 26 0 31
-38 7 -51 -25 -13 -37 -3 -49 43 -7 29 -8 26 -6 -21 2 -51 0 -55 -23 -61 -23
-5 -25 -12 -37 -105 -7 -55 -18 -108 -23 -118 -17 -28 -10 -272 9 -335 16 -54
16 -53 16 140 l0 193 32 75 c18 41 39 90 48 108 17 33 17 33 35 12 9 -11 22
-20 29 -20 6 0 11 -9 11 -20 0 -22 -16 -27 -23 -7 -2 6 -7 -10 -11 -36 -6 -40
-10 -46 -22 -36 -17 14 -18 41 -3 56 6 6 9 19 7 29 -6 27 -32 -33 -54 -121
-14 -58 -16 -97 -10 -240 4 -103 2 -201 -4 -250 -6 -44 -15 -120 -20 -170 -14
-135 -20 -186 -30 -230 -5 -22 -7 -78 -6 -125 3 -92 -23 -323 -47 -406 -20
-71 -13 -148 23 -241 29 -74 30 -80 16 -113 -8 -19 -25 -63 -38 -97 -13 -35
-28 -63 -35 -63 -6 0 -15 -9 -18 -20 -5 -15 -11 -18 -23 -11 -9 4 -22 7 -28 4
-17 -6 -89 63 -129 122 -43 66 -114 271 -114 335 -1 25 0 81 2 125 l2 80 70 2
c63 3 73 0 98 -22 l29 -26 -37 -45 c-39 -47 -68 -64 -113 -64 -20 0 -23 -3
-14 -12 19 -19 97 18 137 66 19 24 35 50 35 59 0 26 -43 67 -80 77 -19 5 -60
16 -90 25 -30 9 -77 18 -105 19 -41 3 -52 7 -62 27 -19 36 -15 76 9 99 25 23
34 20 19 -8 -9 -18 -7 -22 21 -31 25 -9 35 -8 49 5 10 9 19 11 23 5 3 -5 20
-12 37 -16 17 -4 33 -13 36 -21 8 -21 23 -17 32 8 7 19 14 22 55 19 42 -2 48
0 54 21 l6 23 7 -25 c4 -14 7 -40 8 -59 1 -30 -1 -33 -24 -27 -18 5 -23 3 -19
-8 3 -8 13 -12 24 -9 16 4 19 -2 22 -43 l3 -49 12 41 c9 28 10 50 3 74 -6 19
-10 52 -10 73 0 35 1 37 26 31 22 -6 25 -4 22 12 -2 13 -10 18 -25 16 -26 -4
-32 25 -37 168 -2 52 -7 130 -11 172 -4 42 -4 85 0 95 4 10 8 57 9 106 1 64
-2 87 -12 87 -16 0 6 38 25 42 23 5 -9 51 -52 75 -35 20 -49 21 -135 17 -52
-3 -108 -9 -125 -14 -38 -11 -117 -10 -130 0 -6 5 -55 12 -109 16 l-99 7 7
-29 c4 -16 13 -32 19 -36 17 -10 105 -21 116 -13 6 3 28 1 50 -5 l39 -10 4
-60 c3 -65 4 -64 -56 -74 -16 -3 -33 -11 -37 -17 -4 -6 -11 -9 -16 -6 -6 4
-18 0 -29 -7 -10 -8 -25 -12 -34 -9 -8 2 -6 -1 5 -8 11 -6 21 -13 23 -15 2 -1
-2 -12 -8 -24 -6 -11 -10 -30 -8 -41 3 -17 6 -16 38 12 54 47 110 64 110 34 0
-20 39 -98 54 -107 6 -4 14 -2 18 5 6 9 10 9 16 1 13 -19 80 -24 97 -8 20 21
20 22 -17 20 -25 -1 -35 5 -45 24 -11 22 -18 20 -14 -3 1 -5 -4 -7 -11 -5 -7
3 -13 18 -13 34 0 28 2 29 45 27 25 -1 82 -3 127 -5 46 -2 83 -6 83 -10 0 -4
6 -5 14 -2 25 9 31 -18 31 -144 0 -102 -2 -121 -14 -117 -12 5 -12 2 1 -12 18
-20 31 -130 17 -138 -5 -4 -9 -14 -9 -24 0 -9 -6 -25 -13 -35 -12 -16 -17 -17
-37 -6 -21 11 -26 10 -38 -8 -13 -20 -14 -20 -74 14 -33 19 -68 34 -78 34 -11
0 -22 5 -25 11 -5 7 4 8 28 4 40 -8 55 6 32 29 -12 11 -28 14 -65 9 -49 -6
-50 -5 -50 20 0 14 4 28 8 31 4 2 7 27 6 55 l-3 51 44 0 c24 0 46 -4 49 -9 3
-5 15 -11 26 -14 19 -5 20 -2 14 29 -6 31 -4 34 17 34 13 0 51 -14 83 -30 32
-17 60 -30 62 -30 8 0 -52 60 -61 60 -5 0 -20 8 -33 18 -22 17 -22 18 -3 37
39 39 66 62 85 68 10 4 16 10 12 14 -9 9 -57 -17 -89 -49 -15 -16 -33 -28 -41
-28 -7 0 -16 -10 -19 -22 -5 -16 -9 -19 -19 -11 -7 5 -60 11 -118 12 -58 2
-111 8 -118 14 -10 8 -19 8 -33 -1 -17 -11 -21 -9 -31 15 -7 16 -12 35 -12 43
-1 8 -9 16 -18 18 -12 2 -17 -3 -16 -20 1 -47 22 -144 35 -163 16 -23 17 -12
2 17 -8 14 -8 23 0 31 8 8 11 6 11 -6 0 -21 8 -22 29 -3 22 19 87 10 70 -10
-6 -7 -8 -18 -5 -23 4 -5 2 -12 -4 -16 -6 -4 -7 -12 -3 -18 17 -26 41 -138 27
-124 -3 3 -16 2 -28 -2 -26 -10 -104 21 -113 45 -4 10 1 22 11 30 16 11 15 34
-2 34 -15 0 -56 -73 -59 -104 -3 -28 1 -33 30 -44 45 -16 60 -15 53 3 -4 12 4
14 46 12 40 -2 52 -6 54 -19 3 -22 -16 -35 -26 -18 -4 7 -13 9 -19 5 -9 -5 -9
-10 -1 -20 6 -7 8 -20 4 -29 -3 -9 -1 -16 5 -16 7 0 15 10 20 22 5 15 10 18
15 9 4 -6 3 -18 -4 -26 -8 -10 -8 -15 3 -22 8 -4 17 -21 19 -38 3 -28 0 -30
-37 -37 -44 -8 -115 -10 -115 -4 0 13 31 60 54 81 27 25 34 45 16 45 -5 0 -10
-4 -10 -10 0 -5 -5 -10 -12 -10 -6 0 -3 10 8 22 19 21 19 21 -1 14 -11 -5 -33
-13 -50 -18 -45 -16 -49 -23 -35 -57 11 -27 10 -36 -9 -71 -26 -51 -26 -58 -1
-35 19 17 21 17 65 -6 32 -17 49 -34 60 -62 17 -44 19 -71 4 -62 -15 10 -59
13 -59 5 0 -4 15 -11 33 -17 l32 -9 -1 -81 c-1 -44 -5 -89 -9 -99 -4 -11 -9
-23 -10 -29 -28 -117 -99 -254 -165 -316 l-49 -46 -30 24 c-17 13 -37 39 -45
56 -18 39 -36 107 -29 107 3 0 1 6 -5 13 -7 8 -7 37 -2 87 5 41 9 122 8 180
l0 105 -14 -90 c-19 -123 -36 -155 -28 -51 5 61 3 77 -7 71 -8 -5 -10 -4 -5 4
4 6 3 17 -2 24 -6 7 -12 26 -15 42 -2 17 -6 -15 -7 -70 -5 -142 -5 -144 -12
-151 -4 -3 -4 -12 -2 -19 3 -7 0 -16 -6 -20 -8 -5 -8 -11 1 -21 16 -20 5 -28
-20 -15 -13 8 -22 8 -26 1 -8 -13 -22 -5 -36 22 -8 15 -8 19 0 14 18 -12 52 4
49 22 -2 13 -12 16 -40 14 -23 -2 -39 2 -45 11 -4 8 -21 20 -38 28 -37 18 -41
38 -54 279 -5 96 -14 186 -18 198 -9 23 -10 23 -45 -18 -47 -53 -155 -142
-240 -196 -38 -24 -68 -48 -68 -52 0 -5 -14 -29 -31 -55 -29 -45 -30 -49 -31
-169 0 -87 4 -136 15 -168 8 -25 18 -59 22 -76 7 -35 80 -154 95 -154 10 0 42
102 38 122 -2 8 8 13 27 14 42 1 42 19 1 19 -19 0 -37 2 -40 5 -3 3 -2 62 3
130 6 97 13 134 29 165 26 49 51 79 79 94 34 17 41 13 13 -9 -29 -23 -15 -27
17 -5 20 14 22 13 25 -2 8 -36 -5 -239 -17 -263 -7 -14 -15 -45 -18 -70 l-6
-45 20 43 c11 23 23 64 26 91 l6 49 52 -103 c71 -138 187 -334 300 -505 35
-52 71 -113 81 -135 10 -22 48 -92 83 -155 62 -110 161 -323 161 -346 0 -6 13
-40 29 -75 36 -80 106 -308 124 -406 l7 -33 -59 0 -58 0 -17 68 c-56 216 -69
254 -155 422 -49 96 -92 186 -96 200 -7 24 -106 200 -207 370 -28 47 -79 141
-114 210 -56 110 -64 120 -64 90 -1 -19 -7 -51 -14 -71 -17 -49 -121 -194
-174 -244 -174 -163 -221 -215 -252 -281 -31 -63 -32 -72 -27 -148 5 -91 19
-121 105 -233 31 -40 76 -83 110 -105 31 -21 54 -38 51 -38 -3 0 -37 16 -76
35 -39 19 -84 35 -100 35 -120 1 -280 110 -320 221 -44 120 -3 282 104 407 43
50 190 166 270 214 80 48 91 62 67 89 -14 15 -16 31 -11 77 6 55 5 60 -18 72
-14 7 -25 17 -25 21 0 4 -16 25 -35 46 -19 21 -50 67 -67 103 -32 63 -33 68
-32 190 0 73 6 142 13 165 21 64 90 164 137 195 l42 30 1 102 c1 184 20 287
75 397 18 36 38 80 44 96 6 17 26 71 46 120 32 82 49 146 76 290 17 83 17 88
25 141 l7 52 26 -14 c15 -7 39 -17 53 -23 41 -15 62 -72 61 -160 -2 -67 1 -78
23 -101 21 -21 26 -40 32 -104 l6 -79 -29 19 c-16 9 -51 35 -77 57 l-49 40
-40 -39 c-48 -47 -64 -76 -71 -129 -13 -85 -29 -162 -48 -224 -10 -35 -19 -75
-19 -90 1 -39 70 142 81 214 15 92 60 154 109 154 24 0 24 0 5 -11 -38 -22
-56 -52 -51 -84 2 -18 0 -36 -4 -40 -11 -11 -80 -189 -80 -205 0 -21 35 33 74
116 21 44 54 101 72 128 19 26 29 47 24 47 -6 0 -10 9 -10 20 0 19 1 20 24 5
33 -22 43 -71 56 -295 12 -190 24 -287 55 -420 l14 -65 -4 65 c-16 224 -15
437 1 635 16 185 21 336 25 657 0 56 -7 116 -20 170 -11 46 -23 110 -27 143
-4 33 -15 83 -24 110 l-17 50 -27 -54 c-14 -30 -26 -61 -26 -69 0 -10 -6 -12
-17 -7 -10 4 -56 18 -103 31 -185 52 -304 100 -336 136 -16 17 -15 19 9 42 15
14 27 29 27 35 0 16 -17 22 -23 8 -7 -18 -117 -70 -152 -71 -16 -1 -34 -4 -40
-8 -19 -11 -74 -20 -85 -13 -18 11 7 33 125 111 122 81 153 107 209 176 45 56
53 111 21 135 -32 23 -58 12 -80 -33 -11 -23 -28 -49 -37 -58 -75 -72 -485
-340 -553 -360 -24 -7 -40 24 -50 94 -5 41 -2 51 33 104 50 75 330 358 401
405 232 154 307 183 466 177 81 -3 98 -7 169 -41z m5782 -171 c2 -84 -10 -107
-61 -118 -16 -4 -25 -3 -20 1 6 4 11 50 11 102 1 79 4 96 20 108 32 24 49 -6
50 -93z m-124 -16 c-7 -7 -12 -8 -12 -2 0 14 12 26 19 19 2 -3 -1 -11 -7 -17z
m-5347 -38 c3 -5 1 -10 -4 -10 -6 0 -11 5 -11 10 0 6 2 10 4 10 3 0 8 -4 11
-10z m-4270 -218 c50 -18 143 -58 220 -93 192 -87 364 -156 484 -195 78 -25
140 -48 138 -50 -2 -2 -19 1 -38 6 -18 6 -61 10 -94 9 l-60 -1 75 -24 c69 -23
234 -62 353 -84 26 -5 62 -14 80 -20 17 -5 70 -17 116 -25 47 -8 87 -18 90
-21 10 -11 -265 7 -389 25 -41 6 -91 13 -110 15 -117 16 -207 29 -220 34 -17
5 -13 5 -140 27 -96 16 -221 49 -252 65 -9 6 -52 17 -95 25 -43 9 -91 21 -108
27 -66 25 -189 90 -225 118 -64 51 -105 171 -62 184 35 10 188 -3 237 -22z
m9529 15 c17 -12 17 -16 3 -48 -25 -56 -125 -154 -192 -187 -33 -17 -105 -44
-160 -61 -55 -18 -113 -37 -130 -42 -52 -18 -167 -48 -250 -65 -44 -9 -96 -22
-115 -29 -19 -7 -109 -21 -200 -30 -91 -9 -203 -23 -250 -31 -101 -17 -343
-44 -348 -40 -1 2 14 7 34 11 41 7 382 119 429 140 70 31 115 48 190 72 75 24
160 56 230 88 17 7 82 34 145 60 63 26 149 64 190 85 89 45 125 57 222 74 97
18 180 19 202 3z m-5210 -79 c-3 -4 -11 -5 -19 -1 -21 7 -19 12 4 10 11 0 18
-5 15 -9z m2094 -159 c35 -67 53 -149 34 -149 -6 0 -14 5 -17 10 -19 31 -135
66 -135 41 0 -11 -59 -26 -67 -17 -7 6 27 51 86 115 23 24 41 50 41 58 0 30
26 4 58 -58z m-3528 -69 c12 -37 12 -42 -5 -54 -12 -8 -20 -29 -22 -57 -3 -37
1 -49 27 -78 19 -21 30 -45 31 -65 0 -17 2 -53 3 -81 4 -66 -13 -106 -70 -161
-34 -34 -47 -55 -49 -81 -4 -37 -2 -37 60 -20 30 9 60 34 60 51 0 11 6 21 13
24 11 3 12 0 3 -16 -7 -13 -7 -23 -2 -27 6 -3 4 -24 -4 -52 -15 -51 -35 -79
-35 -49 0 9 -5 14 -10 11 -6 -4 -8 -11 -4 -17 3 -5 -2 -8 -12 -7 -11 2 -33 -5
-51 -14 -18 -9 -39 -17 -48 -17 -8 0 -15 -8 -15 -17 0 -33 31 -147 49 -188 33
-72 71 -157 71 -161 0 -12 -22 -1 -28 14 -4 9 -24 46 -44 82 -53 93 -88 192
-89 253 -1 28 -4 40 -6 25 -5 -32 -19 -37 -28 -9 -3 11 -13 25 -22 33 -15 11
-16 11 -9 -7 4 -11 14 -51 22 -90 8 -38 17 -77 21 -85 3 -8 7 -19 9 -25 1 -5
5 -18 9 -27 5 -13 2 -15 -15 -11 -12 3 -17 9 -11 12 6 4 1 36 -14 91 -13 47
-27 103 -30 125 -4 22 -13 49 -20 60 -7 12 -15 30 -18 40 -3 15 -5 14 -6 -7
-1 -35 23 -139 49 -207 12 -29 19 -56 16 -58 -10 -10 -66 95 -92 172 -48 143
-20 262 89 382 88 96 147 185 167 254 11 36 20 73 20 81 0 17 10 29 20 23 3
-2 13 -22 20 -45z m3008 -25 c-3 -3 -9 2 -12 12 -6 14 -5 15 5 6 7 -7 10 -15
7 -18z m-2361 -38 c12 -7 48 -28 79 -47 95 -58 98 -60 129 -60 70 -1 218 -57
230 -88 6 -16 -18 -77 -35 -87 -6 -4 -21 4 -33 19 -14 15 -33 26 -48 26 -14 0
-34 9 -44 20 -10 11 -24 20 -32 20 -7 0 -13 6 -13 14 0 17 -43 46 -69 46 -11
0 -23 5 -26 10 -4 7 -12 7 -24 0 -10 -5 -20 -7 -23 -5 -2 2 -24 7 -48 10 -47
6 -88 27 -97 51 -8 22 -22 17 -16 -6 5 -21 -11 -28 -22 -10 -10 17 -25 11 -25
-10 0 -11 -5 -20 -11 -20 -6 0 -9 6 -6 13 2 6 0 20 -4 29 -6 10 -5 19 1 23 12
8 13 35 1 35 -5 0 -19 -11 -31 -23 -30 -31 -74 -26 -64 7 6 21 6 21 -10 1 -8
-11 -16 -30 -16 -43 0 -19 -4 -22 -20 -17 -14 5 -40 -6 -85 -34 -36 -23 -65
-37 -65 -31 0 5 -5 10 -11 10 -6 0 -9 -9 -6 -20 3 -12 0 -20 -8 -20 -7 0 -20
-10 -29 -22 -13 -17 -16 -18 -12 -5 3 10 2 15 -4 12 -6 -3 -10 -12 -10 -18 0
-7 -14 -28 -30 -47 l-30 -35 6 41 c4 26 2 44 -5 48 -6 4 -11 19 -11 34 1 25 2
25 14 10 16 -21 26 -23 26 -5 0 8 -11 24 -24 36 -25 23 -41 81 -22 81 5 0 20
-10 33 -22 26 -24 31 -13 8 19 -10 14 -13 32 -9 48 8 33 17 25 58 -52 28 -50
34 -57 64 -57 18 -1 32 4 32 10 0 7 10 14 23 18 12 3 32 14 44 25 11 11 24 17
29 13 4 -4 4 -1 0 6 -10 17 14 48 25 31 5 -9 13 -7 30 5 29 20 39 20 39 2 0
-8 5 -18 12 -22 8 -5 9 -2 5 9 -8 22 10 32 30 15 14 -11 16 -11 11 3 -5 12 -1
15 17 11 13 -2 31 1 42 7 19 12 54 7 90 -12z m2658 2 c12 -19 -5 -23 -22 -6
-16 16 -16 17 -1 17 9 0 20 -5 23 -11z m-3245 -19 c0 -5 -4 -10 -10 -10 -5 0
-10 5 -10 10 0 6 5 10 10 10 6 0 10 -4 10 -10z m2595 -20 c49 -31 62 -48 39
-56 -50 -18 -114 -105 -114 -154 0 -17 -3 -17 -28 -4 -24 11 -34 30 -61 113
-19 55 -31 108 -27 117 6 15 17 16 83 10 49 -4 87 -13 108 -26z m415 20 c0 -5
-2 -10 -4 -10 -3 0 -8 5 -11 10 -3 6 -1 10 4 10 6 0 11 -4 11 -10z m-254 -8
c5 -4 36 -16 69 -26 79 -24 103 -36 110 -54 9 -25 -55 -8 -147 38 -45 23 -84
43 -87 46 -8 8 45 4 55 -4z m743 -73 c144 -116 230 -204 255 -261 42 -96 32
-259 -21 -357 -14 -25 -32 -59 -40 -74 -19 -37 -29 -27 -14 14 19 56 13 84
-31 141 -67 86 -241 278 -251 278 -11 0 21 -44 110 -151 63 -77 70 -95 27 -79
-46 18 -107 62 -95 69 8 5 6 15 -9 33 -11 15 -20 32 -20 39 0 7 -15 29 -32 48
-18 18 -27 31 -19 26 17 -10 7 27 -21 73 -11 17 -18 32 -16 32 2 0 39 -33 81
-73 l77 -74 0 90 0 90 -42 36 c-87 74 -128 119 -128 140 0 19 6 21 56 21 54 0
59 -3 133 -61z m-3139 16 c0 -8 -4 -15 -10 -15 -5 0 -7 7 -4 15 4 8 8 15 10
15 2 0 4 -7 4 -15z m2960 -70 c31 -21 50 -46 71 -92 34 -75 35 -78 9 -56 -11
10 -20 22 -20 28 0 16 -40 51 -66 59 -12 4 -24 16 -27 27 -8 29 -27 14 -27
-20 0 -15 -9 -36 -20 -46 -20 -18 -18 -41 3 -28 7 4 6 0 -2 -10 -7 -9 -19 -17
-25 -17 -23 0 -4 158 26 214 10 19 11 18 24 -5 7 -14 32 -38 54 -54z m-5978 7
c17 -13 104 -42 238 -77 58 -16 110 -31 115 -35 9 -6 73 -26 114 -35 23 -6
103 -34 126 -45 11 -5 47 -16 80 -24 33 -7 122 -30 199 -50 76 -20 152 -36
169 -36 17 0 28 -3 24 -6 -7 -7 -467 -6 -512 1 -16 3 -127 9 -245 15 -200 9
-347 28 -396 52 -11 5 -28 22 -37 37 -16 27 -15 29 6 47 41 36 87 65 87 55 0
-5 -4 -21 -10 -35 -7 -19 -17 -26 -37 -26 -22 0 -25 -2 -13 -10 13 -9 13 -11
0 -20 -13 -9 -13 -11 0 -20 18 -12 43 -13 36 -2 -3 5 6 32 20 61 13 29 24 61
24 71 0 11 5 22 10 25 6 3 10 10 10 15 0 11 -69 -32 -70 -43 0 -16 -45 -46
-68 -47 -13 0 -20 4 -17 10 3 6 17 10 31 10 13 0 24 5 24 10 0 6 -17 10 -39
10 -35 0 -39 3 -45 31 -7 37 -8 84 -1 90 8 8 163 -17 177 -29z m8911 -20 c39
-4 52 -22 16 -22 -12 0 -38 -17 -58 -39 -20 -21 -55 -59 -79 -85 -54 -58 -116
-90 -239 -121 -158 -40 -351 -54 -652 -48 -328 6 -389 21 -91 23 118 1 233 5
255 9 l40 7 -48 5 c-27 2 -50 2 -52 0 -3 -2 -48 -5 -102 -6 -73 -2 -85 -1 -48
4 l50 8 -52 1 c-30 1 -53 -2 -53 -8 0 -13 -60 -13 -80 0 -12 8 -10 10 10 10
14 0 37 6 51 14 14 7 64 19 110 26 46 7 113 23 149 36 92 32 162 55 183 59 9
2 22 7 28 11 22 13 79 22 85 13 3 -5 17 0 31 11 14 11 34 20 45 20 10 0 35 7
56 16 107 45 316 72 445 56z m-5122 -148 c15 -120 13 -195 -8 -214 -12 -11
-14 -11 -8 -1 7 13 8 156 0 211 -15 119 -16 124 -6 109 5 -8 15 -56 22 -105z
m372 99 c-7 -2 -19 -2 -25 0 -7 3 -2 5 12 5 14 0 19 -2 13 -5z m137 -3 c0 -5
-23 -10 -51 -10 -31 0 -48 4 -44 10 3 6 26 10 51 10 24 0 44 -4 44 -10z m80 6
c0 -3 -4 -8 -10 -11 -5 -3 -10 -1 -10 4 0 6 5 11 10 11 6 0 10 -2 10 -4z m516
-46 c-10 -52 -26 -71 -19 -22 8 55 14 72 21 72 5 0 4 -22 -2 -50z m1070 3 c-7
-7 -26 7 -26 19 0 6 6 6 15 -2 9 -7 13 -15 11 -17z m136 3 c6 4 8 2 4 -4 -3
-6 -2 -13 4 -17 5 -3 10 -21 10 -38 l0 -32 -19 25 c-21 26 -32 66 -22 75 3 4
7 1 9 -4 2 -6 9 -8 14 -5z m-2966 -5 c-3 -5 -26 -12 -50 -15 -65 -10 -217
-115 -329 -228 -22 -22 -37 -23 -37 -3 0 15 92 112 145 153 34 27 99 62 124
67 9 2 41 10 71 19 65 17 83 19 76 7z m574 -50 c0 -33 -4 -63 -10 -66 -9 -6
-14 8 -11 28 0 4 -4 7 -9 7 -6 0 -8 12 -4 28 4 21 3 24 -5 12 -7 -10 -11 -11
-11 -3 0 15 31 53 42 53 5 0 8 -27 8 -59z m484 50 c4 -5 -3 -7 -14 -4 -23 6
-26 13 -6 13 8 0 17 -4 20 -9z m99 -22 c-5 -5 -25 -4 -48 3 l-40 12 45 6 c44
5 61 -3 43 -21z m83 16 c-4 -11 1 -15 19 -15 23 0 23 -1 9 -29 -19 -37 -40
-46 -47 -19 -4 14 0 22 14 25 20 5 20 6 -1 20 -11 8 -18 19 -15 24 10 15 28
10 21 -6z m-626 -110 c0 -88 -1 -105 -10 -105 -10 0 -19 145 -12 190 l5 35 9
-30 c4 -16 8 -57 8 -90z m1915 94 c5 -5 -5 -4 -23 2 -17 6 -32 13 -32 16 0 7
43 -8 55 -18z m-4815 -24 c0 -5 -5 -3 -10 5 -5 8 -10 20 -10 25 0 6 5 3 10 -5
5 -8 10 -19 10 -25z m4845 15 c3 -5 1 -10 -4 -10 -6 0 -11 5 -11 10 0 6 2 10
4 10 3 0 8 -4 11 -10z m-2840 -19 c-3 -6 -11 -11 -17 -11 -6 0 -6 6 2 15 14
17 26 13 15 -4z m2170 -18 c3 -16 10 -44 15 -64 12 -46 12 -52 0 -44 -5 3 -10
14 -10 24 0 10 -7 32 -15 47 -8 16 -15 37 -15 47 0 27 19 20 25 -10z m-74
-141 c-6 -22 -26 -7 -29 22 -2 16 2 42 10 60 l13 31 5 -50 c3 -27 4 -56 1 -63z
m-2226 58 c-10 -11 -20 -18 -23 -15 -7 6 18 35 31 35 5 0 2 -9 -8 -20z m3142
-8 c-4 -13 47 -87 82 -121 37 -35 150 -101 175 -101 7 0 44 -9 80 -20 52 -16
66 -25 66 -40 0 -14 -7 -20 -24 -20 -44 0 -161 42 -183 66 -12 13 -28 24 -36
24 -18 0 -80 57 -96 88 -10 19 -15 21 -26 12 -12 -10 -17 -6 -26 16 -7 16 -18
43 -25 61 -18 40 -18 54 1 47 8 -3 13 -9 12 -12z m183 -32 c0 -5 -2 -10 -4
-10 -3 0 -8 5 -11 10 -3 6 -1 10 4 10 6 0 11 -4 11 -10z m1117 -103 c-3 -76
-11 -125 -22 -152 -10 -22 -25 -69 -35 -105 -10 -41 -22 -65 -30 -65 -8 0 -24
-16 -35 -35 -11 -20 -32 -52 -47 -71 -16 -20 -28 -39 -28 -43 0 -12 -144 -157
-190 -191 -43 -31 -190 -111 -371 -202 -47 -23 -112 -50 -145 -58 -62 -17
-170 -20 -188 -6 -6 5 -24 11 -39 13 -54 6 -24 23 93 54 154 40 367 144 539
263 123 85 319 301 379 416 25 48 104 252 102 263 -3 17 2 32 11 32 8 0 10
-32 6 -113z m-2078 28 c7 -16 21 -46 32 -66 10 -21 21 -57 25 -80 3 -24 13
-66 21 -92 20 -63 12 -91 -31 -111 -22 -10 -33 -22 -30 -30 7 -18 -25 -29 -42
-15 -8 6 -14 30 -14 55 0 23 -5 55 -10 70 -8 20 -8 29 1 35 7 4 9 16 6 28 -4
18 -1 21 28 21 19 0 37 5 40 10 4 6 -5 10 -20 10 -14 0 -37 8 -51 17 -22 14
-27 14 -36 2 -8 -11 -9 -11 -4 3 3 10 2 19 -2 22 -9 5 -3 76 5 76 3 0 12 -8
20 -17 13 -17 14 -17 12 2 -1 11 -1 46 0 79 1 59 1 59 19 35 10 -13 23 -37 31
-54z m4420 58 c-114 -145 -154 -182 -241 -223 -80 -37 -337 -97 -481 -112
-112 -11 -134 -7 -121 25 5 14 21 17 78 18 106 2 151 16 56 18 -41 1 -91 4
-111 7 -29 5 -41 2 -58 -15 -11 -11 -28 -21 -37 -21 -9 0 6 20 38 50 29 27 58
50 63 50 6 -1 2 -7 -9 -15 -10 -7 -16 -20 -14 -27 3 -8 13 0 26 21 24 39 83
77 132 85 52 8 160 40 160 47 0 4 -48 5 -107 2 -95 -4 -106 -3 -90 10 47 38
402 94 611 96 111 1 118 0 105 -16z m-7943 -76 c9 -29 44 -108 77 -177 59
-122 63 -128 187 -250 172 -171 255 -232 430 -320 47 -23 92 -48 100 -54 8 -7
47 -26 85 -41 39 -16 75 -32 80 -35 6 -4 42 -15 80 -25 39 -10 74 -21 79 -26
13 -12 -61 -39 -106 -39 -35 0 -124 23 -203 53 -35 14 -320 158 -385 195 -188
108 -384 353 -440 548 -11 37 -17 70 -15 75 3 4 1 10 -5 14 -5 3 -10 40 -10
82 0 65 2 74 14 63 8 -6 23 -35 32 -63z m3368 -6 c1 -37 8 -67 18 -78 16 -19
33 -70 29 -90 -1 -7 3 -13 9 -13 7 0 9 -8 5 -20 -4 -14 -2 -20 7 -18 7 2 13
-5 13 -14 0 -9 4 -20 8 -24 4 -4 7 -31 7 -61 0 -40 -4 -53 -15 -53 -8 0 -20
-9 -27 -20 -7 -11 -16 -20 -19 -20 -4 0 -10 30 -14 68 -4 37 -11 72 -16 79
-11 13 -32 300 -24 321 10 26 16 6 19 -57z m-4404 24 c53 -3 102 -11 110 -16
16 -11 -305 -4 -395 9 l-50 7 55 5 c65 6 149 5 280 -5z m193 -22 c-13 -2 -33
-2 -45 0 -13 2 -3 4 22 4 25 0 35 -2 23 -4z m3078 -110 c0 -54 2 -113 4 -130
2 -18 0 -33 -4 -33 -5 0 -11 28 -15 61 -9 93 -7 199 4 199 6 0 10 -40 11 -97z
m-3346 41 c39 -7 93 -20 120 -28 28 -9 79 -24 115 -34 36 -11 131 -39 213 -62
81 -24 147 -47 147 -50 0 -4 -42 -10 -92 -14 -109 -8 -215 -23 -175 -25 15 0
27 -5 27 -11 0 -5 14 -10 32 -10 26 0 29 -3 20 -12 -32 -32 -477 -2 -565 36
-27 13 -27 13 -7 31 28 25 26 59 -5 73 -18 8 -25 20 -25 38 l0 27 133 -8 c72
-4 128 -3 124 2 -5 4 -77 11 -160 14 -137 5 -220 20 -204 35 24 24 168 23 302
-2z m7861 -13 c7 11 84 7 84 -4 0 -5 10 -5 21 -2 16 5 19 4 14 -5 -6 -10 -1
-12 18 -8 39 8 49 -11 29 -56 -55 -124 -335 -203 -570 -162 -148 26 -163 30
-164 41 0 6 17 16 38 22 l39 13 -35 -5 c-19 -3 -46 -7 -60 -9 -14 -2 -29 -4
-35 -5 -5 -1 -3 -6 5 -11 11 -7 1 -10 -35 -9 l-50 0 60 30 c33 17 84 40 114
50 30 10 59 23 65 28 6 4 22 11 36 13 14 3 52 13 85 22 32 9 80 19 105 22 62
7 81 14 75 25 -4 5 3 9 15 9 12 0 19 -4 16 -8 -3 -5 8 -6 24 -4 17 2 28 8 25
12 -2 4 14 4 35 0 22 -4 43 -3 46 1z m-8316 -33 c0 -12 -25 -9 -38 4 -20 20
-14 27 13 15 14 -7 25 -15 25 -19z m103 -30 c15 -11 13 -13 -15 -12 -64 3 -69
4 -63 14 9 14 58 12 78 -2z m4924 -50 c-3 -8 -6 -5 -6 6 -1 11 2 17 5 13 3 -3
4 -12 1 -19z m-375 -16 c9 -18 9 -27 0 -42 -14 -23 -16 -130 -3 -130 14 0 0
-41 -15 -47 -15 -5 -70 10 -124 35 -36 16 -132 43 -162 45 -11 1 -18 9 -18 20
0 13 5 17 15 13 9 -3 15 0 15 8 0 26 66 79 125 101 80 30 150 29 167 -3z
m-4562 -11 c0 -10 -34 -21 -64 -21 -27 0 -8 17 24 23 14 2 28 5 33 6 4 0 7 -3
7 -8z m4567 -93 c-3 -7 -5 -2 -5 12 0 14 2 19 5 13 2 -7 2 -19 0 -25z m534
-100 c6 -12 22 -33 35 -47 32 -35 120 -225 140 -306 8 -30 35 -215 37 -250 3
-48 -18 -110 -38 -113 -30 -6 -65 19 -65 46 0 24 -1 24 -18 9 -10 -10 -25 -17
-32 -17 -27 0 -102 53 -130 91 l-29 40 -7 -36 c-4 -22 0 -68 9 -113 9 -42 14
-95 12 -117 -6 -46 -50 -159 -77 -194 -10 -13 -18 -30 -18 -37 0 -7 -4 -16
-10 -19 -6 -4 -7 1 -3 11 4 12 3 15 -5 10 -7 -4 -12 -13 -12 -19 0 -7 -9 -23
-20 -37 l-20 -25 -25 28 c-14 15 -25 35 -25 43 0 15 -23 55 -50 87 -22 26 -27
83 -13 157 28 146 35 200 44 305 13 170 27 302 35 337 6 30 7 31 15 11 4 -12
11 -50 15 -85 4 -35 10 -67 14 -73 4 -5 11 -21 15 -35 9 -27 77 -139 85 -140
3 0 6 9 7 20 1 11 -2 20 -7 20 -14 0 -57 92 -69 149 -6 29 -11 90 -11 136 0
74 3 87 22 105 12 11 30 20 39 20 10 0 21 5 24 10 22 35 75 -12 81 -73 3 -22
1 -27 -5 -18 -5 8 -7 21 -3 30 4 13 1 12 -16 -3 -21 -18 -22 -18 -29 0 -6 15
-9 10 -14 -21 -7 -42 5 -80 22 -69 7 4 6 10 0 18 -10 12 -5 26 9 26 3 0 14
-14 25 -32 15 -26 18 -49 17 -123 -3 -100 5 -165 19 -165 6 0 9 35 7 83 -1 54
2 93 12 114 12 27 12 38 -3 83 -9 29 -17 72 -17 95 0 24 -4 55 -9 68 -16 41
19 54 40 15z m-5214 -23 c113 -24 344 -91 410 -120 65 -28 11 -75 -126 -110
-86 -22 -273 -19 -353 6 -121 38 -210 105 -268 203 -19 32 -21 40 -9 48 22 15
217 0 346 -27z m9074 15 c17 -10 18 -13 5 -38 -49 -94 -163 -171 -311 -210
-100 -27 -254 -26 -325 3 -103 40 -170 80 -170 99 0 7 114 40 225 66 50 11
104 27 120 35 84 39 407 71 456 45z m-8019 -34 c13 -8 21 -7 30 2 6 6 21 12
32 12 18 0 17 -3 -10 -31 -27 -28 -77 -57 -149 -86 l-30 -12 27 0 c15 -1 30
-6 33 -11 4 -6 11 -8 16 -5 5 4 14 3 21 -1 7 -4 21 -8 32 -9 166 -12 217 -19
203 -26 -8 -5 -28 -10 -44 -11 -15 -1 -34 -6 -40 -11 -7 -5 -13 -7 -13 -4 0 3
-26 -3 -57 -14 -41 -15 -94 -22 -183 -26 -120 -5 -127 -5 -179 21 -30 14 -72
26 -93 26 -33 0 -38 3 -38 23 0 30 33 82 66 104 24 15 52 18 205 18 163 0 203
5 186 21 -3 4 -74 6 -157 5 -82 -1 -150 0 -150 3 0 24 257 34 292 12z m6859
-17 c39 -6 94 -21 123 -34 48 -21 53 -26 63 -69 12 -56 13 -55 -117 -99 -74
-24 -94 -27 -160 -22 -47 4 -106 18 -158 37 l-83 31 120 40 c67 22 121 44 121
50 0 10 -212 2 -302 -12 -126 -20 18 42 162 69 115 22 141 23 231 9z m1383
-56 c4 -4 -13 -13 -36 -20 -59 -17 -67 -16 -39 7 23 20 61 26 75 13z m-5124
-89 c0 -8 -4 -14 -10 -14 -5 0 -10 9 -10 21 0 11 5 17 10 14 6 -3 10 -13 10
-21z m227 -40 c-3 -3 -12 -4 -19 -1 -8 3 -5 6 6 6 11 1 17 -2 13 -5z m33 -4
c0 -5 -2 -10 -4 -10 -3 0 -8 5 -11 10 -3 6 -1 10 4 10 6 0 11 -4 11 -10z m457
-122 c-2 -13 -4 -3 -4 22 0 25 2 35 4 23 2 -13 2 -33 0 -45z m2871 -47 c12
-11 22 -22 22 -25 0 -3 -19 -18 -42 -33 -24 -15 -45 -31 -48 -34 -3 -3 -23
-16 -45 -27 -33 -17 -36 -21 -17 -22 15 0 21 -4 16 -11 -7 -12 -26 -10 -169
11 -65 10 -113 30 -71 30 23 0 15 24 -10 28 -50 8 -124 34 -120 41 3 5 20 11
38 15 24 5 37 1 55 -16 13 -12 23 -17 23 -12 0 6 26 18 58 28 31 10 73 24 92
32 19 7 71 13 115 13 64 0 85 -3 103 -18z m-7254 -16 c39 -12 86 -29 103 -39
34 -17 83 -65 83 -80 0 -5 -3 -6 -7 -3 -3 4 -16 -1 -27 -11 -44 -39 -181 -72
-300 -72 -82 0 -127 26 -252 147 l-64 61 107 7 c60 3 113 8 118 10 31 12 175
0 239 -20z m831 2 c66 -9 125 -16 130 -17 6 0 2 -5 -8 -11 -10 -6 -53 -13 -95
-16 -101 -7 -113 -15 -63 -38 44 -20 53 -35 21 -35 -47 0 -150 -25 -150 -37 0
-22 -18 -23 -57 -3 -21 10 -55 26 -75 34 -28 11 -38 21 -38 37 0 20 4 21 59
17 33 -2 58 -1 55 4 -8 13 -62 39 -134 64 l-65 23 150 -3 c83 -2 204 -11 270
-19z m7217 -9 c86 -24 98 -31 91 -61 -12 -48 -40 -66 -178 -111 -120 -40 -173
-39 -295 6 -57 21 -111 38 -120 37 -38 -3 -42 1 -19 26 40 42 118 87 182 106
86 24 243 23 339 -3z m-4406 -3 c4 -8 10 -12 15 -9 5 3 9 -2 9 -10 0 -9 -3
-16 -7 -16 -10 0 -43 32 -43 42 0 14 20 9 26 -7z m14 -135 c0 -5 -6 -10 -12
-10 -9 0 -8 -3 2 -10 8 -5 11 -12 8 -15 -11 -11 -28 5 -28 26 0 10 7 19 15 19
8 0 15 -4 15 -10z m-2670 -111 c77 -10 113 -13 190 -18 l25 -2 -24 -19 c-13
-11 -29 -20 -36 -20 -6 0 -22 -9 -35 -20 -13 -11 -30 -20 -38 -20 -9 0 -23 -6
-31 -14 -64 -56 -308 -60 -319 -5 -5 27 38 79 85 103 57 28 72 29 183 15z
m2894 -11 c13 -63 26 -162 31 -242 3 -49 9 -94 14 -100 5 -6 14 -36 20 -66 7
-30 19 -66 29 -80 38 -56 72 -152 97 -267 3 -18 27 -69 51 -115 112 -207 130
-258 91 -258 -16 0 -64 62 -141 177 -26 40 -51 75 -55 77 -4 3 -32 -61 -61
-142 -55 -154 -97 -240 -110 -225 -4 4 -36 92 -71 196 -35 103 -66 187 -69
187 -3 0 -25 -61 -49 -135 -24 -74 -47 -135 -50 -135 -10 0 -59 83 -66 111 -5
19 4 41 33 90 58 97 79 149 87 214 5 39 21 85 44 130 76 145 100 248 108 455
3 86 9 138 17 142 22 15 46 8 50 -14z m2989 2 c132 -17 168 -27 140 -37 -7 -3
-23 -14 -35 -25 -13 -11 -18 -17 -11 -14 6 4 14 2 17 -3 8 -12 -59 -70 -102
-88 -31 -13 -38 -12 -76 7 -23 11 -47 20 -52 20 -6 0 -32 10 -60 23 -27 13
-75 34 -106 48 -32 13 -56 29 -55 34 4 13 64 19 85 9 10 -4 31 -8 48 -9 17 -1
44 -5 60 -9 20 -5 25 -4 14 3 -8 6 -45 15 -82 21 -46 8 -68 16 -68 26 0 20
112 18 283 -6z m-6403 4 c0 -3 -25 -16 -55 -30 -30 -14 -55 -27 -55 -28 0 -5
106 17 123 25 12 7 22 5 33 -6 14 -13 14 -15 -3 -15 -18 -1 -69 -37 -62 -44 2
-2 36 5 74 15 39 10 71 19 73 19 1 0 2 -6 2 -12 0 -7 -17 -24 -38 -38 -20 -14
-43 -30 -49 -37 -7 -6 -50 -26 -95 -44 -73 -28 -95 -32 -183 -33 -95 -1 -103
1 -147 29 -54 34 -78 76 -57 101 31 37 154 74 252 74 47 1 157 18 185 29 1 1
2 -1 2 -5z m7049 -33 c9 -4 56 -11 105 -14 49 -4 94 -11 100 -17 5 -5 19 -10
31 -11 22 -1 15 -4 -27 -13 -19 -4 -34 -19 -47 -44 -70 -137 -236 -139 -447
-6 -63 39 -114 82 -114 96 0 5 24 8 53 7 80 -1 187 8 195 16 9 8 128 -2 151
-14z m646 9 c-3 -5 -14 -10 -23 -9 -14 0 -13 2 3 9 27 11 27 11 20 0z m-5670
-116 c-15 -11 -16 -14 -3 -14 11 0 15 -12 17 -49 1 -43 -2 -52 -29 -75 -30
-24 -68 -106 -50 -106 5 0 11 8 13 18 3 9 5 -2 6 -24 0 -23 4 -57 7 -75 4 -26
3 -30 -5 -19 -6 8 -11 26 -12 40 -1 18 -4 13 -10 -15 -6 -30 -3 -56 11 -100
10 -33 22 -77 25 -98 4 -21 14 -41 21 -44 8 -3 14 -11 14 -19 0 -8 8 -14 17
-14 11 0 14 -3 7 -10 -7 -7 -20 -7 -42 1 -111 39 -174 425 -93 573 28 52 53
90 80 119 l26 29 9 -53 c8 -45 7 -54 -9 -65z m2834 84 c0 -18 2 -44 5 -57 3
-14 2 -29 -3 -35 -14 -17 -15 -59 -2 -91 19 -46 17 -103 -7 -190 -13 -44 -18
-81 -14 -83 13 -4 2 -49 -14 -63 -16 -13 -19 -39 -5 -39 10 0 5 -27 -27 -140
-12 -41 -23 -103 -24 -138 -1 -35 -6 -66 -10 -68 -9 -6 -24 23 -33 66 -4 19
-12 38 -18 42 -11 7 6 105 24 138 20 37 51 104 45 99 -4 -4 -25 -30 -46 -60
-29 -38 -40 -47 -41 -33 -1 20 0 20 -21 -35 -8 -22 -10 -23 -25 -9 -18 18 -21
76 -9 158 l7 55 -31 -35 c-21 -23 -29 -28 -25 -15 4 11 10 31 13 43 2 13 17
37 33 54 15 17 30 43 34 57 4 14 13 40 20 56 8 17 30 79 50 138 19 59 43 120
52 135 15 24 64 81 70 82 1 0 2 -15 2 -32z m-370 -85 c-1 -32 -10 -85 -19
-118 -10 -33 -24 -105 -30 -159 -12 -98 -12 -100 11 -117 l23 -17 -41 -48
c-55 -68 -65 -102 -53 -183 18 -113 21 -121 70 -169 104 -103 172 -163 203
-178 47 -25 173 -161 206 -224 79 -151 61 -288 -53 -399 -34 -32 -74 -65 -91
-74 -16 -8 -43 -29 -58 -47 -16 -17 -31 -29 -34 -26 -4 3 17 33 46 66 29 33
48 60 44 60 -5 0 -30 -13 -56 -30 -26 -16 -51 -30 -56 -30 -4 0 -28 -13 -53
-30 -28 -19 -64 -32 -94 -36 -39 -4 -45 -3 -31 6 9 6 26 13 35 15 38 7 150 90
139 102 -4 3 -22 -8 -42 -26 -46 -40 -54 -39 -23 2 14 17 47 70 73 117 45 79
49 90 49 155 1 63 -3 77 -34 130 -22 38 -88 112 -177 200 -105 104 -155 163
-197 229 -31 50 -56 93 -56 97 0 16 18 18 30 4 7 -8 17 -15 23 -15 6 0 2 10
-10 22 l-22 21 21 29 c19 27 21 28 34 11 12 -16 13 -14 14 19 0 20 7 72 15
115 18 92 17 85 7 79 -5 -3 -14 -41 -22 -86 -10 -60 -19 -86 -35 -98 -12 -9
-30 -30 -40 -47 -11 -16 -25 -34 -33 -38 -16 -10 -104 -145 -164 -252 -158
-280 -168 -300 -268 -505 -28 -58 -66 -132 -84 -166 -33 -59 -55 -123 -100
-297 -12 -48 -25 -89 -27 -91 -9 -9 -104 -10 -104 -1 2 48 20 155 30 175 7 14
15 42 19 62 4 20 15 56 25 80 10 24 45 111 77 193 32 83 88 204 123 270 35 66
78 147 95 180 58 109 88 160 111 185 12 14 45 69 73 122 47 89 89 157 238 384
29 44 72 116 95 160 23 43 62 105 86 138 25 32 47 66 50 75 8 21 34 61 40 61
2 0 3 -26 2 -57z m-220 0 c-6 -16 -17 -51 -25 -80 -22 -84 -103 -217 -121
-200 -13 13 10 98 36 134 15 21 40 61 56 88 27 47 54 85 61 85 2 0 -1 -12 -7
-27z m3388 11 c-3 -3 -12 -4 -19 -1 -8 3 -5 6 6 6 11 1 17 -2 13 -5z m-1748
-34 c29 -16 269 -80 300 -80 16 0 32 -3 34 -8 7 -10 -20 -85 -35 -97 -7 -5
-13 -17 -13 -25 0 -8 -15 -23 -34 -32 -34 -17 -34 -17 -100 19 -37 19 -80 46
-96 60 l-30 24 55 -7 c30 -4 63 -11 73 -16 26 -13 117 -27 111 -16 -3 4 -11 8
-18 8 -7 0 -70 34 -141 75 -70 41 -132 75 -138 75 -5 0 -21 10 -35 21 l-27 22
39 -7 c21 -4 46 -11 55 -16z m-4959 3 c0 -5 -17 -19 -38 -32 -20 -13 -49 -32
-64 -43 -15 -10 -30 -18 -33 -18 -2 0 -37 -20 -77 -45 -79 -49 -133 -59 -145
-27 -4 9 -23 31 -42 48 l-36 32 40 10 c22 5 83 19 135 31 52 11 124 27 160 35
76 17 100 19 100 9z m6670 -59 c181 -29 411 -92 516 -140 29 -13 58 -24 65
-24 16 0 182 -85 234 -120 22 -14 61 -34 88 -44 48 -18 127 -88 152 -136 7
-14 15 -38 16 -54 4 -27 0 -30 -51 -48 -51 -18 -65 -19 -185 -8 -71 6 -150 16
-175 21 -25 6 -52 12 -60 14 -36 7 -181 45 -250 65 -41 11 -91 25 -110 29 -19
5 -87 27 -150 50 -63 22 -142 49 -175 61 -103 36 -139 53 -182 88 -49 38 -53
59 -20 99 13 15 26 36 30 45 5 15 10 15 59 -3 31 -12 65 -18 83 -14 19 3 25 2
17 -4 -19 -11 8 -22 37 -14 12 3 21 1 21 -4 0 -6 22 -13 49 -16 31 -4 91 -27
161 -62 62 -31 114 -54 117 -52 10 11 -171 106 -404 212 -36 17 -59 33 -56 39
3 6 3 8 -2 4 -9 -9 -45 9 -45 22 0 22 55 20 220 -6z m-203 -80 c-3 -3 -12 -4
-19 -1 -8 3 -5 6 6 6 11 1 17 -2 13 -5z m-5361 -19 c9 -8 20 -45 25 -83 10
-69 51 -185 74 -212 19 -22 74 -153 68 -163 -12 -20 -90 41 -131 103 -73 111
-114 290 -78 345 19 29 22 30 42 10z m4531 0 c24 -3 45 -10 48 -16 4 -5 15 -9
26 -9 11 0 17 -4 14 -10 -3 -5 -4 -10 -1 -10 2 0 13 -3 23 -7 15 -6 16 -5 5 9
-12 15 -8 16 30 11 58 -8 111 -30 106 -45 -3 -7 -32 -33 -67 -57 -83 -58 -117
-62 -217 -23 -136 53 -184 74 -184 83 0 13 69 28 140 31 36 2 65 8 65 13 0 6
-37 13 -83 16 -110 8 -131 27 -25 23 43 -2 97 -6 120 -9z m-7179 -2 c-10 -2
-26 -2 -35 0 -10 3 -2 5 17 5 19 0 27 -2 18 -5z m915 -21 c70 0 127 -3 128 -7
0 -9 -107 -75 -181 -112 -45 -22 -72 -28 -148 -31 -102 -4 -133 1 -114 20 18
18 15 24 -24 48 -43 25 -39 31 36 55 30 9 71 25 90 35 29 15 39 16 60 5 16 -7
72 -12 153 -13z m5358 1 c13 -17 13 -17 -6 -3 -11 8 -22 16 -24 17 -2 2 0 3 6
3 6 0 17 -8 24 -17z m-4481 -11 c0 -10 -18 -27 -47 -42 -27 -14 -90 -53 -142
-87 -101 -67 -102 -67 -188 -36 -41 15 -57 33 -30 33 8 0 36 11 63 25 27 14
101 45 164 69 160 61 180 65 180 38z m4497 -51 c42 -43 42 -43 33 -13 -4 17
-12 37 -16 43 -4 7 13 -2 37 -18 44 -31 112 -63 132 -63 6 0 0 11 -12 24 -15
16 -19 26 -11 31 6 4 13 5 14 4 2 -2 24 -33 50 -68 53 -73 50 -81 -26 -81 -81
0 -190 62 -248 142 -34 47 -42 80 -12 57 9 -8 36 -34 59 -58z m-4984 -45 c17
-13 16 -16 -18 -39 -57 -39 -95 -95 -94 -142 0 -22 3 -33 6 -25 3 8 17 27 31
43 29 30 71 35 110 13 l24 -13 -41 -32 c-22 -18 -49 -46 -58 -62 l-18 -30 -75
6 c-96 8 -149 20 -167 38 -13 13 -6 21 53 68 36 30 86 71 109 92 23 20 53 37
65 37 23 0 23 0 4 21 -16 17 -16 22 -4 29 21 14 52 12 73 -4z m2187 7 c0 -5
-5 -15 -10 -23 -8 -12 -10 -11 -10 8 0 12 5 22 10 22 6 0 10 -3 10 -7z m1980
-3 c0 -5 -5 -10 -11 -10 -5 0 -7 5 -4 10 3 6 8 10 11 10 2 0 4 -4 4 -10z m425
-68 c-6 -15 -8 -15 -14 3 -5 11 -3 25 3 31 14 15 21 -9 11 -34z m-3849 2 c-20
-30 -66 -166 -66 -195 0 -19 -4 -20 -42 -14 -24 4 -51 11 -60 16 -9 5 -26 9
-37 9 -11 0 -28 11 -37 25 -9 13 -26 27 -37 31 -20 7 -20 8 8 15 72 18 154 56
205 95 65 50 91 57 66 18z m4720 -57 c19 -11 205 -57 230 -57 80 0 -55 -89
-166 -110 -49 -9 -94 4 -120 35 -20 24 -39 100 -40 158 l0 48 43 -34 c23 -19
47 -37 53 -40z m-6548 21 c7 -7 12 -18 12 -25 0 -7 -55 -49 -122 -93 -109 -72
-119 -81 -84 -75 21 4 48 12 60 20 12 7 33 15 47 19 15 3 60 21 100 39 142 64
131 62 157 31 25 -29 25 -45 0 -139 -18 -70 -159 -179 -324 -250 -156 -67
-474 -119 -586 -96 -56 12 -58 13 -58 45 0 76 48 136 175 221 60 41 157 91
415 214 30 14 82 43 114 63 64 41 76 44 94 26z m5843 -28 c122 -89 155 -110
171 -110 24 0 23 -9 -4 -37 -15 -16 -33 -23 -57 -23 -52 0 -108 18 -123 39 -7
9 -31 26 -53 37 -36 17 -40 23 -40 57 0 26 -6 41 -18 48 -26 15 -11 29 32 29
28 0 51 -10 92 -40z m215 -7 c-4 -4 -11 -1 -16 7 -16 25 -11 35 7 17 9 -9 13
-20 9 -24z m1614 -28 c41 -18 104 -45 140 -60 36 -15 106 -50 155 -78 50 -28
114 -63 144 -79 73 -38 166 -121 198 -175 22 -37 24 -48 14 -69 -6 -14 -28
-32 -49 -41 -64 -27 -297 -4 -477 48 -90 26 -257 110 -315 158 -25 20 -60 48
-79 60 -40 29 -58 69 -60 136 0 28 -4 62 -7 77 -4 23 -3 27 10 22 9 -3 16 -12
16 -19 0 -17 11 -24 52 -36 l32 -9 -32 33 c-44 46 -40 53 11 19 23 -16 69 -44
102 -62 33 -18 84 -46 113 -62 90 -51 67 -26 -30 33 -89 54 -121 83 -79 72 33
-8 24 11 -10 24 -21 8 -28 16 -23 24 6 10 9 10 12 0 4 -11 6 -11 12 -1 6 10
17 10 49 -3 23 -9 41 -13 41 -8 0 5 -13 14 -30 20 -16 5 -30 13 -30 16 0 9 35
-3 120 -40z m-190 25 c0 -5 -4 -10 -9 -10 -6 0 -13 5 -16 10 -3 6 1 10 9 10 9
0 16 -4 16 -10z m-1380 -33 c14 -8 42 -24 64 -36 58 -33 122 -52 151 -45 33 8
32 -6 -4 -40 -16 -16 -35 -41 -41 -56 -18 -43 -56 -54 -121 -36 -30 8 -47 15
-38 15 18 1 33 38 19 46 -13 8 -42 75 -47 109 -3 17 -10 37 -15 44 -14 16 1
15 32 -1z m-5356 -3 c12 -5 13 -10 5 -25 -11 -21 -30 -24 -46 -8 -25 25 4 47
41 33z m691 -24 c17 -12 51 -30 78 -42 26 -11 47 -24 47 -28 0 -8 -32 -23
-119 -56 -109 -41 -251 -73 -251 -56 0 4 32 47 71 95 88 111 117 125 174 87z
m3499 -147 c-1 -7 3 -10 9 -6 6 4 8 0 4 -11 -4 -10 -3 -15 3 -11 5 3 12 -10
16 -29 3 -20 19 -56 35 -81 16 -25 29 -48 29 -52 0 -3 -19 12 -43 33 -24 22
-63 56 -86 77 -23 20 -46 37 -51 37 -4 0 -18 16 -30 36 -17 26 -21 44 -17 71
11 67 24 68 80 6 29 -31 51 -63 51 -70z m470 7 c15 -28 37 -57 50 -65 28 -19
101 -163 126 -251 30 -104 37 -281 15 -378 -9 -43 -24 -96 -33 -117 -24 -56
-178 -260 -218 -289 -36 -26 -61 -61 -155 -212 -40 -65 -59 -88 -75 -88 -32 0
-34 9 -13 47 11 19 22 55 26 79 5 37 9 44 24 39 22 -7 73 58 91 116 11 37 68
105 68 81 0 -7 5 -12 10 -12 12 0 14 26 3 33 -5 2 -3 2 4 1 17 -4 34 21 27 40
-4 11 -2 15 7 13 8 -2 11 -2 6 0 -4 3 2 17 13 33 11 15 20 34 20 42 -1 7 -12
-5 -25 -28 -22 -36 -29 -40 -55 -36 -37 5 -38 13 -1 39 54 41 121 312 129 525
6 180 -9 282 -54 371 -40 77 -31 92 10 17z m-4878 28 c4 -6 3 -13 -3 -15 -6
-2 -2 -20 10 -43 15 -33 17 -43 7 -55 -10 -12 -10 -15 1 -15 8 -1 -3 -16 -23
-34 -21 -18 -38 -37 -38 -41 0 -5 8 -1 18 7 43 37 44 36 37 -58 -7 -81 -10
-93 -41 -131 -19 -23 -34 -46 -34 -51 0 -14 -78 -93 -118 -121 -19 -13 -50
-39 -70 -57 -21 -19 -69 -50 -109 -70 -40 -19 -88 -46 -108 -60 -20 -13 -39
-24 -43 -24 -4 0 -18 -9 -32 -20 -39 -30 -62 -25 -87 19 -37 64 -39 107 -9
176 15 32 38 74 51 91 14 18 25 36 25 39 0 9 67 91 160 194 71 81 236 215 251
205 4 -2 9 -1 11 4 1 4 20 18 42 30 l38 23 -21 -33 c-13 -20 -27 -32 -38 -30
-17 2 -17 2 0 -12 26 -20 5 -62 -37 -70 -34 -7 -109 -56 -142 -94 -12 -13 -26
-39 -32 -58 l-10 -35 40 46 c44 50 168 135 198 135 5 0 10 -22 10 -50 0 -55 9
-63 26 -26 9 20 9 23 -2 19 -35 -13 3 171 38 185 5 2 6 8 2 13 -6 11 3 29 16
29 5 0 12 -5 16 -12z m6553 -72 c70 -112 132 -187 211 -255 l65 -55 -46 49
c-25 28 -61 75 -79 105 -56 92 -83 134 -104 158 -56 63 76 -19 193 -121 127
-110 255 -262 314 -373 29 -55 35 -120 17 -168 -8 -22 -16 -26 -49 -26 -38 0
-168 38 -226 67 -178 88 -355 275 -413 437 -16 43 -24 246 -10 246 5 0 8 -8 8
-18 0 -10 7 -27 15 -38 8 -10 25 -39 37 -64 28 -59 34 -34 13 54 -26 115 -16
116 54 2z m-4844 42 c58 -15 93 -17 215 -13 l145 6 18 -52 c11 -29 15 -55 10
-60 -19 -19 -182 -31 -372 -28 l-199 4 4 -55 c2 -30 6 -95 8 -145 8 -137 86
-490 127 -571 11 -23 52 -81 91 -130 77 -99 113 -167 139 -264 19 -71 13 -93
-25 -88 -15 2 -22 13 -27 38 -9 57 -78 182 -118 215 -20 16 -56 52 -81 79 -25
27 -63 68 -85 90 -67 69 -125 172 -151 271 -17 60 -18 300 -3 365 6 25 12 50
13 55 1 6 5 16 9 23 5 6 6 16 2 21 -3 5 -1 12 4 15 5 3 12 29 16 57 l7 51 47
-6 c106 -15 298 -19 352 -7 74 17 169 52 169 62 0 5 -1 9 -2 9 -2 1 -75 7
-163 14 -125 10 -170 18 -202 35 -43 21 -74 52 -37 36 10 -4 50 -16 89 -27z
m-1668 -30 c-3 -8 -6 -5 -6 6 -1 11 2 17 5 13 3 -3 4 -12 1 -19z m1122 -73
c-7 -48 -19 -95 -28 -106 -9 -10 -51 -29 -93 -42 l-77 -25 16 27 c9 14 33 46
52 71 20 25 39 50 43 55 73 94 91 115 95 112 2 -3 -1 -44 -8 -92z m4188 64
c15 -7 55 -20 88 -30 48 -14 54 -18 29 -18 -17 -1 -53 6 -80 14 -57 17 -67 18
-59 6 3 -5 18 -12 34 -16 27 -6 91 -59 91 -75 0 -21 -27 -28 -70 -18 -93 22
-100 27 -100 69 0 21 4 40 10 44 5 3 7 12 3 20 -6 18 15 19 54 4z m-852 -59
c3 -6 -1 -7 -9 -4 -18 7 -21 14 -7 14 6 0 13 -4 16 -10z m39 -35 c5 -20 4 -27
-3 -20 -5 6 -13 24 -17 40 -4 20 -3 27 3 20 6 -5 14 -23 17 -40z m-4449 6 c-3
-10 -8 -35 -10 -56 -5 -32 -40 -93 -56 -94 -11 -2 3 125 17 147 18 28 58 31
49 3z m5952 -131 c57 -58 89 -109 118 -184 10 -25 22 -46 26 -46 20 0 8 106
-17 160 -31 64 -45 110 -36 110 12 -1 167 -153 206 -203 124 -157 216 -358
216 -473 0 -57 -40 -124 -74 -124 -30 0 -135 53 -176 89 -19 17 -41 31 -48 31
-16 0 -164 151 -182 187 -8 15 -25 46 -39 68 -13 22 -39 69 -58 104 -19 36
-41 73 -49 82 -38 42 -57 164 -35 223 8 18 15 23 30 19 27 -7 27 13 1 27 -11
6 -20 15 -20 21 0 19 84 -36 137 -91z m-5467 71 c14 -28 12 -147 -4 -206 -11
-41 -78 -183 -121 -255 -62 -104 -137 -185 -244 -265 -106 -79 -138 -95 -186
-95 -46 0 -57 6 -74 37 -28 53 0 252 45 319 13 19 42 68 65 110 23 41 44 73
47 70 7 -8 31 26 32 45 0 19 118 127 165 151 18 10 56 27 84 38 l51 20 -20
-38 c-11 -20 -43 -75 -70 -121 -45 -76 -75 -149 -66 -159 3 -2 17 18 32 45 15
26 31 50 34 53 3 3 14 18 23 33 10 16 27 38 37 50 64 76 140 173 140 180 0 14
20 7 30 -12z m4905 -140 c11 -10 54 -40 95 -67 41 -27 82 -54 90 -61 75 -59
126 -108 147 -138 26 -38 113 -238 113 -258 0 -6 9 -34 19 -62 45 -117 54
-268 22 -338 l-19 -42 -1 55 c-2 88 -30 173 -107 322 -19 37 -50 104 -69 148
-19 45 -50 105 -68 133 -19 29 -41 64 -51 80 -35 58 -186 205 -186 182 0 -2
24 -33 53 -67 28 -35 65 -83 82 -108 16 -25 42 -61 57 -80 24 -31 118 -207
198 -370 72 -147 95 -290 47 -290 -33 0 -167 84 -220 137 -109 108 -201 274
-226 405 -7 35 -18 86 -26 113 -8 28 -19 84 -24 125 -12 87 -20 128 -27 153
-3 10 1 29 10 42 14 21 20 23 44 14 15 -6 36 -18 47 -28z m-4516 -69 c-91 -97
-103 -111 -208 -267 -51 -77 -102 -146 -112 -153 -11 -7 -19 -22 -19 -32 0
-10 -6 -20 -12 -22 -15 -5 -17 -82 -4 -113 8 -19 8 -19 18 5 6 14 11 39 12 55
2 17 15 52 30 78 15 26 25 47 21 47 -4 0 8 17 26 39 19 21 52 64 74 96 49 70
141 186 161 201 8 6 14 16 14 22 0 17 91 92 112 92 16 0 18 -5 13 -32 -8 -45
-23 -148 -35 -238 -16 -112 -67 -265 -123 -363 -34 -60 -145 -197 -159 -197
-11 0 -166 -106 -195 -133 -13 -11 -26 -17 -30 -14 -20 20 -36 266 -24 362 14
112 85 287 150 368 79 101 215 213 301 250 57 25 56 20 -11 -51z m-1069 -106
c0 -2 -8 -10 -17 -17 -16 -13 -17 -12 -4 4 13 16 21 21 21 13z m1749 -141 c0
-5 -4 -3 -9 5 -5 8 -9 22 -9 30 0 16 17 -16 18 -35z m-1892 -152 c-20 -70 -20
-74 -4 -126 22 -71 67 -132 116 -157 93 -47 235 -47 302 1 15 10 30 19 34 19
4 0 37 26 74 59 l66 59 -3 -104 c-4 -144 29 -259 99 -338 25 -29 29 -41 24
-65 l-6 -30 73 40 c40 22 114 60 163 84 109 53 190 127 288 262 28 38 44 33
19 -5 -9 -15 -12 -23 -5 -19 17 11 27 -11 13 -28 -10 -12 -9 -15 8 -15 11 0
23 6 25 13 4 8 6 7 6 -3 0 -8 -6 -24 -14 -34 -18 -24 -20 -40 -3 -30 8 5 9 2
3 -12 -4 -10 -7 -27 -7 -36 1 -22 -23 -23 -62 -3 -33 18 -32 18 -70 -55 -13
-25 -37 -70 -53 -100 -30 -57 -63 -140 -106 -270 -35 -103 -58 -156 -133 -313
-12 -26 -26 -62 -29 -80 -4 -18 -17 -48 -29 -67 -12 -19 -25 -43 -29 -53 -16
-42 -121 -187 -174 -238 l-58 -57 -267 -5 c-148 -4 -268 -5 -268 -3 0 2 -11
57 -25 122 -13 66 -31 169 -40 229 -18 118 -18 123 -35 260 -16 137 -40 273
-60 345 -10 36 -28 121 -40 190 -30 177 -66 306 -101 357 -16 24 -29 53 -29
63 0 22 -15 34 -32 24 -8 -5 -7 -10 3 -18 33 -26 46 -106 16 -106 -5 0 -3 -8
6 -18 15 -17 40 -72 33 -72 -2 0 -23 28 -47 63 -23 34 -36 56 -27 49 13 -10
15 -8 14 18 -1 16 -6 32 -12 34 -6 2 -11 -3 -10 -12 2 -30 -83 -17 -118 18
-29 29 -30 30 -11 50 42 47 82 62 168 64 86 3 127 13 215 52 29 14 57 22 62
19 5 -3 28 8 51 25 23 16 43 29 45 27 1 -1 -7 -35 -19 -74z m8166 -88 c-34
-24 -230 -109 -303 -132 -36 -12 -121 -29 -190 -38 -135 -19 -162 -31 -225
-93 -54 -55 -63 -88 -64 -221 -1 -158 -12 -188 -75 -217 -60 -28 -64 -23 -46
55 8 31 14 63 15 71 7 64 30 177 47 234 36 120 102 171 242 186 194 20 361 59
453 104 112 56 193 84 146 51z m-9273 -26 c15 -6 -170 -15 -200 -10 l-35 5 35
7 c29 6 183 4 200 -2z m130 -35 c25 -9 52 -18 60 -21 11 -4 9 -7 -8 -14 -17
-7 -38 -2 -85 20 -46 22 -56 29 -37 30 13 1 45 -6 70 -15z m479 -54 c9 -16 34
-49 55 -73 43 -51 81 -136 96 -215 5 -28 15 -62 21 -74 11 -20 30 -256 22
-267 -2 -3 -20 5 -40 16 -43 25 -55 56 -46 118 3 29 1 46 -9 56 -8 8 -21 63
-30 129 -23 161 -46 225 -104 278 -26 23 -45 44 -43 45 2 1 13 7 24 13 24 14
31 10 54 -26z m5564 25 c4 -8 2 -17 -3 -20 -6 -4 -10 -1 -10 4 0 8 -7 7 -20
-1 -24 -15 -37 -4 -20 17 16 19 46 19 53 0z m-5855 -60 c-3 -3 -18 -3 -33 1
-27 7 -27 8 -10 21 16 11 21 11 34 -2 8 -8 12 -17 9 -20z m173 19 c10 -13 10
-17 -1 -24 -9 -5 -20 -4 -28 2 -9 8 -16 8 -25 -2 -9 -10 -9 -13 1 -17 6 -3 12
-12 12 -21 -1 -13 -6 -10 -20 10 -15 19 -26 25 -41 21 -36 -10 -17 21 22 34
47 16 64 16 80 -3z m5619 -7 c0 -13 -30 -47 -42 -47 -4 0 -8 7 -8 15 0 8 5 15
10 15 6 0 10 5 10 10 0 6 -3 9 -7 9 -16 -3 -24 1 -19 10 7 11 56 1 56 -12z
m-74 -82 c7 -37 -12 -85 -35 -93 -10 -3 -7 5 7 23 27 35 27 43 0 72 -19 20
-20 26 -8 33 20 12 28 4 36 -35z m3708 19 c9 -24 2 -26 -12 -4 -7 11 -8 20 -3
20 5 0 12 -7 15 -16z m-9388 -19 c-11 -8 -25 -15 -30 -15 -6 0 -2 7 8 15 11 8
25 15 30 15 6 0 2 -7 -8 -15z m209 -15 c3 -5 -1 -10 -9 -10 -9 0 -16 5 -16 10
0 6 4 10 9 10 6 0 13 -4 16 -10z m5418 -3 c2 -6 -1 -17 -8 -24 -10 -9 -12 -6
-12 13 0 25 12 32 20 11z m-51 -29 c-7 -7 -12 -8 -12 -2 0 14 12 26 19 19 2
-3 -1 -11 -7 -17z m-5327 -32 c13 5 16 3 13 -7 -7 -22 -52 -18 -57 6 -3 16 -1
17 12 7 8 -7 22 -9 32 -6z m3075 -18 c0 -12 -6 -9 -26 13 -19 22 -19 22 4 8
12 -8 22 -17 22 -21z m2300 18 c0 -24 -18 -28 -30 -6 -9 17 -8 20 10 20 11 0
20 -6 20 -14z m-3304 -67 c8 -24 14 -63 14 -87 0 -23 7 -59 15 -78 13 -32 13
-40 0 -63 -54 -97 -54 -98 -55 -284 -1 -97 1 -181 5 -187 3 -5 -4 -14 -18 -19
-13 -5 -40 -20 -60 -34 -21 -14 -56 -28 -80 -32 -34 -6 -53 -18 -99 -65 -31
-32 -62 -60 -70 -63 -57 -20 -66 78 -17 173 27 51 35 59 54 54 l22 -5 -5 151
c-5 168 8 286 39 338 10 18 19 40 19 48 0 16 60 94 73 94 4 0 7 -11 7 -25 0
-14 5 -25 10 -25 6 0 10 12 10 26 0 36 17 64 35 58 8 -4 15 -2 15 4 0 17 51
73 63 69 5 -1 16 -23 23 -48z m1089 -29 c31 -21 45 -38 45 -53 0 -13 5 -28 12
-35 9 -9 7 -12 -9 -12 -28 0 -53 10 -53 21 0 5 -11 26 -24 47 -14 20 -28 51
-31 67 -5 24 -4 27 5 13 6 -10 31 -31 55 -48z m2759 36 c-4 -9 11 -16 55 -25
56 -11 62 -15 114 -79 30 -37 59 -76 65 -87 27 -53 44 -129 49 -215 5 -84 3
-102 -17 -148 l-22 -52 38 -46 c67 -80 83 -106 90 -151 7 -45 0 -98 -15 -122
-9 -14 -19 -7 -103 72 -29 27 -189 107 -215 107 -12 0 -27 9 -33 19 -6 12 -10
95 -10 200 0 164 -2 189 -26 268 -32 112 -32 236 0 259 26 18 37 18 30 0z
m-5896 -38 c2 -12 -3 -18 -13 -18 -15 0 -16 -2 -4 -17 13 -16 12 -17 -2 -5 -9
7 -19 24 -22 38 -4 21 -1 25 17 22 11 -2 22 -11 24 -20z m4862 -53 c-71 -44
-74 -45 -91 -28 -10 10 -19 24 -21 32 -4 18 63 39 132 40 l54 1 -74 -45z
m-4861 -63 c0 -20 -4 -55 -8 -77 -7 -38 -8 -39 -16 -15 -14 41 -2 145 16 134
5 -3 9 -22 8 -42z m53 -84 c-7 -7 -12 -8 -12 -2 0 14 12 26 19 19 2 -3 -1 -11
-7 -17z m5686 -84 l22 -15 0 -877 c0 -482 -3 -941 -7 -1019 -5 -129 -8 -141
-23 -133 -10 5 -762 8 -1798 7 l-1782 -2 2 1015 c2 558 7 1021 11 1028 7 9
374 12 1780 12 1588 0 1775 -2 1795 -16z m2892 -54 c6 -11 9 -20 7 -20 -2 0
-12 9 -22 20 -10 11 -13 20 -7 20 6 0 16 -9 22 -20z m-760 -20 c0 -5 -8 -10
-17 -10 -15 0 -16 -2 -3 -10 12 -7 8 -12 -17 -21 -18 -6 -33 -15 -33 -19 0
-12 -57 -23 -71 -14 -8 4 17 22 62 45 86 44 79 42 79 29z m-7663 -22 c-3 -8
-6 -5 -6 6 -1 11 2 17 5 13 3 -3 4 -12 1 -19z m-139 -209 c-30 -19 -35 13 -18
106 18 97 25 96 28 -4 2 -69 -1 -96 -10 -102z m7777 171 c-3 -5 -14 -10 -23
-9 -14 0 -13 2 3 9 27 11 27 11 20 0z m-7639 -48 c-2 -10 -9 -38 -16 -64 -8
-30 -18 -48 -27 -48 -8 0 -13 6 -11 13 3 6 13 38 23 69 10 32 22 55 27 52 5
-3 7 -13 4 -22z m-668 -80 c39 -57 62 -111 62 -141 -1 -9 -12 4 -24 29 -13 25
-36 58 -51 74 -35 38 -75 102 -68 110 12 12 44 -17 81 -72z m8300 58 c-7 -10
-14 -18 -15 -16 -6 6 9 36 18 36 5 0 4 -9 -3 -20z m-35 -32 c-2 -5 -10 -8 -18
-8 -7 0 -30 -20 -50 -45 -32 -39 -36 -49 -31 -80 4 -19 13 -35 20 -35 17 0 41
28 33 37 -4 3 -2 12 4 19 7 8 7 14 -1 19 -17 11 -11 25 18 37 15 7 37 20 50
30 13 9 30 14 38 11 47 -18 -38 -143 -113 -167 -26 -8 -42 -33 -72 -108 -23
-57 -60 -106 -48 -63 5 19 16 91 22 145 5 40 47 194 57 207 10 13 99 13 91 1z
m-7538 -55 c3 -27 9 -58 11 -69 4 -16 0 -23 -18 -28 -17 -4 -20 -8 -10 -15 8
-5 12 -23 10 -47 -3 -34 -6 -39 -28 -41 -14 0 -27 -2 -30 -3 -21 -7 -50 -5
-50 5 0 8 10 10 25 7 18 -3 25 0 25 12 0 9 -5 16 -11 16 -5 0 -7 5 -3 12 5 8
0 9 -14 6 -21 -6 -22 -3 -22 51 0 59 11 81 42 81 11 0 18 7 18 18 0 21 18 42
36 42 6 0 15 -21 19 -47z m-274 -164 c56 -60 86 -132 91 -211 2 -38 2 -68 -1
-68 -3 0 -24 9 -47 20 -29 14 -53 38 -79 78 -44 67 -75 103 -85 97 -9 -6 -6
27 4 44 7 11 10 11 17 0 6 -10 9 -10 9 -2 0 6 -5 15 -11 18 -11 7 38 64 55 65
5 0 26 -18 47 -41z m7973 15 c31 -15 35 -23 45 -75 10 -57 4 -199 -8 -199 -32
1 -143 36 -191 60 -54 27 -59 33 -50 50 6 11 26 32 45 47 19 16 35 32 35 38 0
8 79 95 87 95 1 0 18 -7 37 -16z m-7664 -92 c0 -35 -2 -38 -27 -37 -23 0 -28
-5 -33 -30 l-5 -29 -18 27 c-19 29 -15 68 9 88 11 9 14 8 14 -2 0 -9 8 -6 22
8 28 28 38 21 38 -25z m-430 -48 c0 -6 6 -14 13 -17 14 -5 72 -100 82 -134 10
-34 -13 -28 -33 8 -9 17 -34 53 -54 80 -25 32 -33 49 -25 53 8 3 7 5 -3 5 -36
-3 -42 5 -31 38 3 8 51 -23 51 -33z m-185 -4 c3 -5 1 -10 -4 -10 -6 0 -11 5
-11 10 0 6 2 10 4 10 3 0 8 -4 11 -10z m9042 -82 c-3 -7 -5 -2 -5 12 0 14 2
19 5 13 2 -7 2 -19 0 -25z m-8543 -34 c20 -30 57 -69 81 -86 36 -25 45 -38 45
-61 0 -22 -4 -28 -15 -23 -21 8 -19 0 15 -49 17 -24 30 -50 30 -58 0 -15 -48
-50 -118 -86 -29 -15 -42 -18 -42 -9 0 7 -7 56 -15 108 -15 99 -31 320 -23
320 3 0 22 -25 42 -56z m-67 -31 c-3 -10 -5 -4 -5 12 0 17 2 24 5 18 2 -7 2
-21 0 -30z m7622 -36 c41 -92 54 -134 56 -177 1 -25 6 -62 10 -82 6 -30 5 -38
-7 -38 -10 0 -22 27 -38 85 -17 68 -25 83 -35 75 -10 -8 -15 -8 -20 0 -5 7
-15 -4 -26 -29 -10 -23 -25 -41 -34 -41 -20 0 -20 -29 1 -37 9 -3 27 6 46 23
37 35 24 6 -20 -44 -24 -28 -35 -33 -63 -30 -30 3 -36 8 -47 41 -11 37 -10 41
19 84 16 25 50 86 75 135 24 49 49 86 55 83 5 -4 18 -25 28 -48z m296 -16
c-17 -33 -35 -49 -35 -30 0 11 38 59 47 59 2 0 -3 -13 -12 -29z m-190 -63 c-2
-24 -25 -38 -25 -15 0 23 11 47 19 42 4 -2 7 -14 6 -27z m-6481 -70 c42 -173
29 -302 -42 -404 -42 -62 -57 -68 -48 -21 21 100 21 100 -26 127 -41 24 -49
25 -192 22 -120 -2 -157 0 -192 14 -24 9 -44 23 -44 30 0 7 19 18 43 25 83 23
95 30 42 24 -27 -3 -87 -17 -132 -31 -63 -20 -82 -31 -87 -47 -3 -12 -1 -23 4
-25 23 -8 6 -39 -35 -67 -25 -16 -45 -33 -45 -37 0 -5 -4 -8 -10 -8 -5 0 -19
32 -31 72 -21 68 -21 72 -4 84 10 7 23 15 29 17 6 2 8 8 4 12 -5 5 -19 3 -33
-3 -26 -12 -43 -1 -22 16 15 12 76 21 82 12 3 -4 35 -1 72 7 38 8 104 17 148
21 l80 6 -70 6 c-58 5 -251 -14 -324 -32 -14 -3 -36 51 -25 61 14 14 461 4
470 -10 3 -5 9 -7 14 -4 5 3 34 -2 66 -10 70 -18 82 -19 66 -3 -26 26 -14 38
32 32 25 -4 53 -3 63 0 17 7 17 8 -1 21 -10 8 -39 17 -65 21 -25 4 -39 9 -31
12 8 3 35 19 60 37 41 30 147 92 161 94 3 1 14 -32 23 -71z m5310 0 c46 -40
100 -86 120 -103 26 -22 37 -40 41 -70 4 -36 4 -37 -5 -11 -15 47 -50 58 -50
15 0 -10 7 -19 15 -19 9 0 12 -6 9 -15 -4 -10 0 -15 14 -15 15 0 23 -11 32
-45 7 -25 10 -48 7 -51 -3 -3 -40 -10 -81 -15 -42 -5 -88 -14 -102 -19 -14 -6
-27 -10 -28 -10 -2 0 -16 18 -30 41 -15 22 -30 38 -33 35 -3 -2 4 -18 16 -34
12 -17 21 -35 21 -40 0 -9 -23 -22 -39 -22 -20 0 -71 150 -70 205 1 29 1 29 8
5 12 -38 42 -93 48 -87 3 3 -4 31 -16 62 -26 70 -26 96 0 181 22 71 27 84 34
84 2 0 42 -33 89 -72z m613 -54 c-3 -3 -12 -4 -19 -1 -8 3 -5 6 6 6 11 1 17
-2 13 -5z m113 -28 c6 -8 18 -12 26 -9 26 10 14 -12 -13 -24 -34 -16 -63 -17
-63 -2 0 8 -6 7 -17 -2 -14 -13 -12 -15 23 -20 l39 -5 -28 -12 c-24 -10 -36
-9 -74 8 -25 11 -53 20 -62 20 -9 0 -43 9 -76 20 l-60 20 50 -6 c28 -3 66 -10
85 -16 25 -8 35 -8 38 1 2 6 21 11 42 11 24 0 40 5 44 15 7 19 30 19 46 1z
m70 -50 c0 -2 -13 -6 -29 -8 -17 -2 -28 -1 -25 4 5 8 54 12 54 4z m-7065 -154
c23 -106 35 -146 61 -210 24 -57 20 -65 -63 -105 -89 -43 -99 -44 -108 -17 -7
21 1 165 11 209 7 26 6 25 -30 -8 -33 -32 -36 -40 -36 -88 0 -29 -4 -53 -8
-53 -4 0 -24 16 -43 36 -35 38 -100 73 -133 74 -15 0 -16 -3 -7 -14 10 -12 8
-13 -8 -9 -11 3 -19 10 -18 15 1 6 -4 13 -11 15 -7 3 -10 -1 -7 -9 4 -10 -11
-13 -73 -11 -43 1 -83 3 -88 4 -5 1 -11 0 -14 -1 -3 -1 -16 -3 -30 -5 -14 -2
-41 -6 -60 -8 -19 -3 -43 -7 -53 -11 -9 -3 -24 -8 -32 -11 -19 -6 -20 -25 -1
-25 8 0 48 4 88 10 137 18 173 19 215 8 24 -6 43 -16 43 -24 0 -7 -28 -30 -62
-50 -76 -44 -159 -55 -248 -31 -36 10 -59 11 -67 5 -15 -12 -54 0 -69 20 -25
35 -72 -22 -115 -138 -20 -57 -23 -83 -24 -205 0 -108 4 -149 17 -180 55 -133
61 -179 10 -78 -70 137 -79 375 -21 497 11 22 19 45 19 51 0 6 14 33 31 59 38
56 113 114 189 145 58 24 196 52 216 44 7 -2 15 1 19 7 5 8 12 7 23 -3 10 -8
32 -17 50 -20 29 -6 32 -4 32 18 0 16 6 25 15 25 8 0 37 16 64 35 26 19 52 35
56 35 4 0 20 9 36 21 33 23 34 22 18 -67 -9 -54 -8 -66 6 -88 10 -14 21 -26
25 -26 4 0 10 45 14 100 3 54 11 110 17 123 6 14 34 36 63 50 62 31 59 34 91
-111z m6499 131 c3 -4 28 -8 54 -10 26 -2 67 -8 92 -13 25 -5 88 -16 140 -26
52 -9 97 -18 99 -20 2 -2 -2 -12 -10 -21 -12 -15 -10 -15 9 1 18 16 31 18 79
12 95 -11 118 -11 120 -1 1 6 -11 10 -27 10 -17 0 -29 4 -27 10 2 5 53 11 118
12 63 2 126 8 141 14 28 12 39 8 89 -33 29 -24 90 -121 84 -136 -3 -7 -5 -20
-5 -27 0 -24 -59 -82 -115 -114 -36 -20 -62 -44 -75 -68 -11 -21 -35 -60 -52
-88 -39 -64 -50 -97 -53 -165 -1 -30 -7 -74 -14 -97 -11 -39 -15 -43 -44 -43
-18 0 -57 7 -87 16 -30 9 -66 16 -80 16 -44 0 -99 -94 -78 -134 12 -24 85 -73
131 -88 45 -14 54 -30 37 -69 -34 -84 -176 -74 -219 15 l-14 29 -10 -28 c-7
-21 -4 -35 12 -63 12 -19 21 -37 21 -40 0 -8 -65 -4 -79 5 -24 16 -3 94 62
229 57 119 136 263 178 324 51 73 70 172 47 237 -7 18 -5 22 6 18 21 -8 27 3
15 25 -8 14 -8 23 0 31 16 16 14 30 -4 24 -8 -4 -17 -2 -20 3 -4 6 5 10 19 10
14 0 26 5 26 10 0 6 -5 10 -11 10 -8 0 -8 5 1 15 10 12 10 16 -1 19 -8 2 -29
9 -48 15 -46 15 -53 5 -10 -14 28 -12 30 -14 9 -12 -14 1 -31 6 -37 10 -7 5
-17 6 -22 3 -5 -4 -11 -2 -13 4 -8 23 -168 41 -314 35 -135 -6 -144 -5 -144
12 -1 10 -2 43 -4 73 -2 30 -2 58 1 63 5 9 18 9 27 0z m1066 -224 c0 -8 4 -8
14 0 10 9 25 9 57 1 24 -6 56 -12 71 -15 107 -16 314 -112 329 -152 16 -42 10
-88 -13 -113 l-21 -23 -16 21 c-9 11 -29 40 -45 63 -49 70 -119 90 -181 52
-17 -11 -18 -14 -5 -23 8 -5 22 -7 30 -4 33 14 50 16 50 7 0 -13 -85 -73 -103
-73 -9 0 -42 22 -74 48 -103 86 -171 126 -208 124 -11 0 -2 5 20 12 32 10 36
14 22 22 -20 12 -13 51 12 57 32 9 61 7 61 -4z m-7526 -231 c-5 -8 -2 -9 9 -5
10 4 24 10 32 13 8 3 15 1 15 -5 0 -16 124 -264 149 -300 12 -16 21 -33 21
-37 0 -5 19 -27 42 -51 23 -23 39 -45 36 -48 -3 -3 -22 15 -42 40 -43 52 -82
75 -126 75 -25 0 -30 4 -30 23 0 38 -14 41 -26 5 l-11 -33 -64 3 c-89 5 -112
28 -129 132 -5 25 -11 57 -15 71 -6 25 -2 29 50 54 31 16 63 39 72 52 15 23
31 34 17 11z m5852 -7 c-8 -12 -77 -44 -83 -38 -3 3 12 15 34 26 41 22 57 26
49 12z m-6776 -22 c0 -6 -4 -7 -10 -4 -5 3 -10 11 -10 16 0 6 5 7 10 4 6 -3
10 -11 10 -16z m750 -259 c33 -49 34 -53 11 -41 -27 15 -41 43 -40 78 1 21 3
23 6 8 3 -11 13 -31 23 -45z m-830 -30 c0 -22 -5 -40 -10 -40 -6 0 -9 18 -8
40 4 52 18 52 18 0z m880 -72 c0 -5 -9 -3 -20 4 -11 7 -20 16 -20 20 0 5 9 3
20 -4 11 -7 20 -16 20 -20z m75 -28 c3 -5 -4 -6 -15 -3 -11 3 -22 9 -25 13 -3
5 4 6 15 3 11 -3 22 -9 25 -13z m304 -41 c59 -36 145 -138 128 -155 -1 -2 -23
15 -48 36 -44 37 -146 87 -157 76 -3 -3 4 -9 14 -13 35 -14 111 -78 128 -106
l16 -29 -40 7 c-26 4 -40 3 -40 -4 0 -28 -165 1 -181 31 -6 10 -9 35 -7 55 3
33 10 42 66 80 35 24 68 43 74 43 6 0 27 -10 47 -21z m92 -6 l24 -27 -24 15
c-14 9 -27 21 -29 27 -6 19 3 14 29 -15z m5159 -304 c66 -66 120 -124 120
-130 0 -5 -790 -9 -2096 -9 -1376 0 -2095 3 -2092 10 2 5 39 47 83 91 106 108
81 98 -34 -13 -83 -82 -111 -101 -111 -79 0 5 56 63 125 130 l126 121 1880 0
1879 0 120 -121z m-5190 -4 c0 -7 -8 -16 -17 -21 -14 -6 -8 -9 22 -13 43 -6
53 -26 41 -77 -8 -29 -57 -65 -64 -46 -2 6 -17 12 -32 12 -35 0 -60 32 -60 77
0 22 6 33 19 38 10 3 31 17 46 30 26 25 45 25 45 0z m100 -27 c0 -6 -7 -5 -15
2 -8 7 -15 17 -15 22 0 6 7 5 15 -2 8 -7 15 -17 15 -22z m-235 -27 c3 -5 1
-12 -5 -16 -5 -3 -10 1 -10 9 0 18 6 21 15 7z m6604 -25 c15 -8 20 -16 12 -20
-15 -10 -13 -45 4 -76 12 -22 11 -27 -1 -42 -14 -14 -11 -20 27 -55 68 -61 90
-86 109 -124 10 -19 37 -59 60 -87 22 -29 37 -52 33 -52 -20 0 -87 58 -112 99
-39 60 -45 67 -114 125 -93 77 -112 116 -108 219 1 24 5 27 34 27 17 -1 43 -7
56 -14z m-6575 -65 c-5 -6 -33 31 -33 44 -1 6 8 -1 19 -15 10 -14 17 -27 14
-29z m36 -59 c0 -14 -23 -32 -39 -31 -11 0 -12 2 -3 6 6 2 12 11 12 19 0 8 7
14 15 14 8 0 15 -4 15 -8z m53 -4 c12 -7 23 -13 25 -14 1 -1 -7 -23 -18 -50
-33 -75 -170 -200 -170 -154 0 6 4 18 9 28 17 34 30 67 33 87 2 12 10 19 20
17 9 -1 18 4 22 13 3 8 15 15 26 15 16 0 20 6 20 35 0 39 1 40 33 23z m3878
-303 c-2 -11 -9 -47 -15 -80 l-13 -60 -631 -3 -632 -2 0 67 c0 48 -5 72 -17
85 -16 18 4 18 648 16 658 -3 664 -3 660 -23z"/>
<path d="M9958 8693 c6 -2 18 -2 25 0 6 3 1 5 -13 5 -14 0 -19 -2 -12 -5z"/>
<path d="M8090 8070 c0 -5 5 -10 11 -10 5 0 7 5 4 10 -3 6 -8 10 -11 10 -2 0
-4 -4 -4 -10z"/>
<path d="M5410 7526 c0 -2 8 -10 18 -17 15 -13 16 -12 3 4 -13 16 -21 21 -21
13z"/>
<path d="M4663 7153 c-16 -6 -17 -33 -3 -33 11 0 26 28 19 34 -2 2 -10 1 -16
-1z"/>
<path d="M5229 7043 c0 -5 -2 -28 -4 -53 -5 -52 9 -36 19 23 4 23 3 37 -4 37
-5 0 -10 -3 -11 -7z"/>
<path d="M4680 6996 c0 -2 7 -7 16 -10 8 -3 12 -2 9 4 -6 10 -25 14 -25 6z"/>
<path d="M4460 6861 c0 -6 5 -13 10 -16 6 -3 10 1 10 9 0 9 -4 16 -10 16 -5 0
-10 -4 -10 -9z"/>
<path d="M5265 6860 c-3 -5 1 -13 10 -16 22 -9 29 1 11 15 -10 8 -16 9 -21 1z"/>
<path d="M5140 6723 c0 -2 18 -10 39 -19 25 -10 38 -21 35 -29 -3 -7 -1 -16 5
-20 7 -4 11 9 10 37 0 24 -3 37 -6 31 -2 -7 -11 -13 -19 -13 -9 0 -13 4 -10 8
3 5 -8 9 -24 9 -17 0 -30 -2 -30 -4z"/>
<path d="M5252 6680 c14 -22 24 -19 15 5 -4 8 -11 15 -17 15 -6 0 -6 -7 2 -20z"/>
<path d="M4721 6686 c2 -2 30 -16 62 -30 53 -23 57 -23 57 -7 0 14 -12 22 -44
30 -45 11 -83 15 -75 7z"/>
<path d="M4170 6581 c-12 -24 -13 -41 -1 -41 5 0 14 14 20 30 11 33 -2 41 -19
11z"/>
<path d="M4205 6559 c-4 -6 -5 -13 -2 -16 7 -7 27 6 27 18 0 12 -17 12 -25 -2z"/>
<path d="M5317 6523 c-3 -5 -5 -53 -6 -108 -1 -55 -3 -120 -6 -145 -3 -34 -2
-39 4 -20 5 14 9 69 10 122 1 53 5 108 11 122 8 23 -2 47 -13 29z"/>
<path d="M4708 6493 c6 -2 12 -11 12 -19 0 -22 16 -17 17 6 1 15 -4 20 -20 19
-12 0 -16 -3 -9 -6z"/>
<path d="M5383 6405 c0 -49 2 -72 4 -50 2 22 11 45 19 52 14 10 14 12 1 20 -9
4 -17 22 -20 38 -2 17 -4 -10 -4 -60z"/>
<path d="M4610 6349 c0 -5 5 -7 10 -4 6 3 10 8 10 11 0 2 -4 4 -10 4 -5 0 -10
-5 -10 -11z"/>
<path d="M4745 6290 c-3 -5 -1 -10 4 -10 6 0 11 -7 11 -16 0 -8 4 -13 9 -10
11 7 2 46 -10 46 -4 0 -11 -4 -14 -10z"/>
<path d="M4810 6240 c0 -5 5 -10 11 -10 5 0 7 5 4 10 -3 6 -8 10 -11 10 -2 0
-4 -4 -4 -10z"/>
<path d="M4770 6210 c0 -5 16 -10 36 -10 21 0 33 4 29 10 -3 6 -19 10 -36 10
-16 0 -29 -4 -29 -10z"/>
<path d="M5002 6180 c-8 -13 -8 -20 -2 -20 6 0 13 7 17 15 9 24 -1 27 -15 5z"/>
<path d="M5253 6122 c0 -12 5 -22 9 -22 11 0 10 12 -2 30 -7 12 -9 10 -7 -8z"/>
<path d="M4655 6020 c3 -5 8 -10 11 -10 2 0 4 5 4 10 0 6 -5 10 -11 10 -5 0
-7 -4 -4 -10z"/>
<path d="M3950 5030 c0 -5 5 -10 10 -10 6 0 10 5 10 10 0 6 -4 10 -10 10 -5 0
-10 -4 -10 -10z"/>
<path d="M3983 4977 c0 -30 -33 -117 -73 -198 -17 -33 -30 -65 -28 -71 8 -22
77 54 108 117 27 55 31 72 26 109 -8 50 -33 83 -33 43z"/>
<path d="M3115 6910 c-3 -5 -2 -10 4 -10 5 0 13 5 16 10 3 6 2 10 -4 10 -5 0
-13 -4 -16 -10z"/>
<path d="M3307 7133 c-10 -9 -9 -23 2 -23 5 0 11 7 15 15 5 15 -5 20 -17 8z"/>
<path d="M517 6954 c-4 -4 -7 -14 -7 -23 0 -11 3 -12 11 -4 6 6 10 16 7 23 -2
6 -7 8 -11 4z"/>
<path d="M1108 6603 c7 -3 16 -2 19 1 4 3 -2 6 -13 5 -11 0 -14 -3 -6 -6z"/>
<path d="M5600 6095 c-8 -9 -8 -15 -2 -15 12 0 26 19 19 26 -2 2 -10 -2 -17
-11z"/>
<path d="M7690 5596 c0 -7 82 -57 87 -52 3 2 -13 16 -36 30 -39 25 -51 30 -51
22z"/>
<path d="M3447 5464 c-34 -23 -48 -44 -29 -44 13 0 77 58 71 64 -3 3 -22 -6
-42 -20z"/>
<path d="M3410 5389 c0 -5 5 -7 10 -4 6 3 10 8 10 11 0 2 -4 4 -10 4 -5 0 -10
-5 -10 -11z"/>
<path d="M6306 5100 l-18 -35 22 21 c12 12 20 28 18 35 -3 9 -12 0 -22 -21z"/>
<path d="M5795 4800 c11 -52 25 -72 18 -25 -3 22 -10 45 -15 50 -7 7 -8 -2 -3
-25z"/>
<path d="M6280 4200 c0 -5 5 -10 11 -10 5 0 7 5 4 10 -3 6 -8 10 -11 10 -2 0
-4 -4 -4 -10z"/>
<path d="M8900 4920 c8 -5 20 -10 25 -10 6 0 3 5 -5 10 -8 5 -19 10 -25 10 -5
0 -3 -5 5 -10z"/>
<path d="M6397 3773 c-4 -3 -7 -11 -7 -17 0 -6 5 -5 12 2 6 6 9 14 7 17 -3 3
-9 2 -12 -2z"/>
<path d="M7597 4513 c-2 -21 -1 -45 4 -53 5 -10 9 4 9 38 0 61 -6 68 -13 15z"/>
<path d="M6890 2886 c0 -2 7 -7 16 -10 8 -3 12 -2 9 4 -6 10 -25 14 -25 6z"/>
<path d="M6950 2850 c8 -5 20 -10 25 -10 6 0 3 5 -5 10 -8 5 -19 10 -25 10 -5
0 -3 -5 5 -10z"/>
<path d="M1171 2984 c0 -11 3 -14 6 -6 3 7 2 16 -1 19 -3 4 -6 -2 -5 -13z"/>
<path d="M1102 2500 c13 -8 15 -16 7 -45 -6 -22 -6 -41 0 -52 7 -14 11 -7 16
30 9 55 2 77 -22 77 -17 -1 -17 -1 -1 -10z"/>
<path d="M1547 2093 c-9 -2 -15 -8 -12 -13 6 -10 45 -1 45 11 0 9 -4 10 -33 2z"/>
<path d="M490 1811 c6 -12 17 -21 25 -21 21 0 19 5 -11 25 -25 16 -25 16 -14
-4z"/>
<path d="M8613 2168 c-12 -6 -27 -23 -33 -39 -24 -57 50 -112 115 -85 18 8 36
19 40 26 10 16 -10 49 -45 77 -37 30 -51 34 -77 21z"/>
<path d="M8055 2150 c4 -6 11 -8 16 -5 14 9 11 15 -7 15 -8 0 -12 -5 -9 -10z"/>
<path d="M8465 2140 c3 -5 8 -10 11 -10 2 0 4 5 4 10 0 6 -5 10 -11 10 -5 0
-7 -4 -4 -10z"/>
<path d="M8105 2130 c-3 -5 1 -10 10 -10 9 0 13 5 10 10 -3 6 -8 10 -10 10 -2
0 -7 -4 -10 -10z"/>
<path d="M8295 2100 c-18 -8 -17 -9 7 -9 14 -1 29 -7 32 -13 4 -10 7 -10 12
-1 3 7 14 9 34 3 16 -5 32 -4 38 2 6 6 12 1 15 -14 5 -18 14 -24 41 -25 22 -2
36 2 40 12 7 20 -9 28 -84 42 -78 14 -108 14 -135 3z"/>
<path d="M8404 2019 c-12 -20 10 -39 45 -38 20 1 64 -4 98 -12 35 -7 66 -10
69 -6 8 8 -21 37 -54 54 -31 17 -42 9 -13 -9 31 -19 26 -28 -15 -22 -43 5 -82
29 -62 37 7 3 -4 5 -25 4 -21 0 -40 -4 -43 -8z"/>
<path d="M8490 1911 c0 -6 5 -11 10 -11 6 0 10 -6 10 -14 0 -25 23 -34 50 -20
25 14 25 14 2 14 -16 0 -22 5 -20 18 2 12 -5 18 -24 20 -16 2 -28 -1 -28 -7z"/>
<path d="M8400 1891 c0 -5 9 -11 19 -14 14 -3 18 -11 14 -26 -3 -12 -1 -21 6
-21 6 0 10 3 10 8 -4 26 2 31 26 20 14 -6 25 -14 25 -18 0 -4 9 -10 20 -13 27
-7 25 -2 -11 35 -22 24 -41 33 -70 35 -21 1 -39 -1 -39 -6z"/>
<path d="M8380 1850 c6 -11 15 -20 20 -20 14 0 12 9 -4 26 -21 20 -28 17 -16
-6z"/>
<path d="M8497 1793 c-4 -3 -7 -11 -7 -17 0 -6 5 -5 12 2 6 6 9 14 7 17 -3 3
-9 2 -12 -2z"/>
<path d="M2995 1080 c-10 -11 -16 -22 -13 -25 3 -3 13 6 22 20 20 30 16 32 -9
5z"/>
<path d="M0 9210 c0 -5 5 -10 11 -10 5 0 7 5 4 10 -3 6 -8 10 -11 10 -2 0 -4
-4 -4 -10z"/>
<path d="M5 9180 c3 -5 8 -10 11 -10 2 0 4 5 4 10 0 6 -5 10 -11 10 -5 0 -7
-4 -4 -10z"/>
<path d="M30 9166 c0 -3 9 -10 20 -16 11 -6 20 -8 20 -6 0 3 -9 10 -20 16 -11
6 -20 8 -20 6z"/>
<path d="M0 9141 c0 -9 60 -44 66 -38 1 1 -13 12 -32 25 -19 12 -34 18 -34 13z"/>
<path d="M10223 8506 c-4 -7 -15 -16 -23 -19 -9 -3 -3 -6 13 -6 21 -1 27 4 27
19 0 23 -6 25 -17 6z"/>
<path d="M6308 6912 c-10 -15 -25 -37 -34 -49 -16 -22 -16 -23 9 -23 28 0 41
16 50 68 8 39 -2 41 -25 4z"/>
<path d="M9835 6290 c3 -5 8 -10 11 -10 2 0 4 5 4 10 0 6 -5 10 -11 10 -5 0
-7 -4 -4 -10z"/>
<path d="M103 4093 c26 -2 67 -2 90 0 23 2 2 3 -48 3 -50 0 -68 -1 -42 -3z"/>
<path d="M510 3450 c19 -13 30 -13 30 0 0 6 -10 10 -22 10 -19 0 -20 -2 -8
-10z"/>
<path d="M470 3432 c-119 -10 -265 -136 -349 -301 -22 -43 -62 -168 -82 -256
-10 -40 -14 -124 -13 -255 0 -182 2 -200 26 -266 14 -40 40 -91 59 -114 33
-41 150 -143 156 -136 3 3 -31 86 -62 151 -32 65 -44 308 -25 493 6 55 12 147
13 204 3 88 7 111 31 161 35 72 106 146 170 176 119 55 256 -24 308 -178 9
-25 18 -39 22 -32 4 6 12 11 17 11 6 0 7 -6 2 -12 -10 -17 -13 -68 -3 -68 4 0
13 7 20 15 7 8 9 15 5 15 -4 0 3 8 15 18 16 13 24 32 28 70 4 47 1 58 -38 121
-43 72 -107 139 -156 164 -32 16 -91 24 -144 19z"/>
<path d="M9255 3310 c-4 -6 -3 -16 3 -22 6 -6 12 -6 17 2 4 6 3 16 -3 22 -6 6
-12 6 -17 -2z"/>
<path d="M9330 3170 c-26 -16 -4 -21 26 -5 23 12 25 15 9 15 -11 0 -27 -4 -35
-10z"/>
<path d="M10035 3059 c-10 -43 -1 -46 12 -4 6 19 7 35 3 35 -5 0 -11 -14 -15
-31z"/>
<path d="M9986 3003 c-6 -14 -5 -15 5 -6 7 7 10 15 7 18 -3 3 -9 -2 -12 -12z"/>
<path d="M9580 2972 c6 -13 14 -21 18 -18 3 4 -2 14 -12 24 -18 16 -18 16 -6
-6z"/>
<path d="M9510 2921 c0 -6 4 -13 10 -16 6 -3 7 1 4 9 -7 18 -14 21 -14 7z"/>
<path d="M8815 2179 c-4 -6 -5 -12 -4 -14 5 -4 163 -43 166 -41 1 1 -23 16
-53 34 -57 33 -98 41 -109 21z"/>
<path d="M7767 1695 c-4 -8 -13 -15 -21 -15 -14 0 -76 -99 -76 -122 0 -6 16 6
35 28 37 41 80 113 72 120 -3 3 -7 -2 -10 -11z"/>
<path d="M2582 1684 c1 -9 9 -19 16 -22 9 -3 13 2 10 14 -1 9 -9 19 -16 22 -9
3 -13 -2 -10 -14z"/>
<path d="M1850 710 c0 -5 5 -10 10 -10 6 0 10 5 10 10 0 6 -4 10 -10 10 -5 0
-10 -4 -10 -10z"/>
<path d="M10080 80 l0 -80 80 0 80 0 0 80 0 80 -80 0 -80 0 0 -80z"/>
</g>
</svg>
