<?xml version="1.0" standalone="no"?>
<!DOCTYPE svg PUBLIC "-//W3C//DTD SVG 20010904//EN"
 "http://www.w3.org/TR/2001/REC-SVG-20010904/DTD/svg10.dtd">
<svg version="1.0" xmlns="http://www.w3.org/2000/svg"
 width="64.000000pt" height="64.000000pt" viewBox="0 0 64.000000 64.000000"
 preserveAspectRatio="xMidYMid meet">

<g transform="translate(0.000000,64.000000) scale(0.100000,-0.100000)"
fill="#000000" stroke="none">
<path d="M541 585 c-126 -51 -144 -74 -93 -120 16 -14 28 -34 27 -44 -2 -28
-24 -51 -42 -44 -10 4 -14 2 -10 -4 4 -6 -3 -8 -19 -5 -13 2 -29 13 -35 24 -5
10 -15 16 -21 12 -7 -4 -5 -10 6 -16 9 -5 16 -16 16 -24 0 -8 -4 -12 -10 -9
-5 3 -10 0 -10 -7 -1 -7 -12 -26 -25 -42 l-24 -30 -12 27 c-7 15 -16 27 -21
27 -4 0 -8 7 -8 16 0 8 -4 12 -10 9 -5 -3 -10 1 -10 9 0 8 8 20 18 25 15 9 15
10 1 11 -9 0 -19 -7 -23 -15 -7 -19 -64 -17 -87 2 -22 18 -13 52 19 79 19 16
24 26 19 45 -7 27 -43 48 -134 80 -56 19 -67 12 -36 -23 16 -18 16 -18 0 -12
-13 5 -17 0 -17 -20 0 -14 4 -26 8 -26 5 0 17 -7 28 -16 18 -15 18 -15 -11
-10 -27 5 -26 3 10 -14 42 -19 35 -27 -10 -10 -22 8 -25 7 -23 -8 2 -9 10 -22
18 -29 13 -11 13 -12 -2 -13 -23 0 -23 -36 0 -45 16 -6 16 -8 -3 -21 -19 -15
-19 -15 6 -9 16 4 30 2 34 -4 4 -7 -6 -14 -24 -17 -30 -6 -37 -14 -25 -27 4
-3 13 0 21 8 16 17 58 21 48 5 -3 -5 -12 -10 -20 -10 -8 0 -11 -7 -8 -20 3
-11 14 -20 24 -20 10 0 21 -5 24 -10 4 -6 11 -8 16 -5 5 4 12 0 15 -9 3 -8 12
-12 20 -9 12 4 12 -1 -3 -31 -21 -45 -56 -47 -61 -4 -3 29 -16 36 -27 18 -4
-6 -1 -17 5 -25 17 -20 5 -19 -20 2 -18 16 -19 18 -3 24 11 3 13 8 6 12 -17
11 -43 -21 -42 -51 l2 -27 4 29 5 28 24 -23 c28 -26 31 -39 9 -39 -18 0 -37
-43 -29 -65 10 -24 22 -17 17 9 -6 31 33 45 42 15 4 -11 11 -17 16 -14 5 4 5
-5 -1 -20 -9 -23 -8 -26 7 -23 19 4 22 27 9 66 -6 16 -3 22 8 22 9 0 16 -4 16
-10 0 -5 7 -7 15 -4 8 4 22 1 30 -6 12 -10 14 -3 17 47 l3 58 110 0 110 0 3
-58 c3 -50 5 -57 17 -47 8 7 22 10 30 6 8 -3 15 -1 15 4 0 6 7 10 16 10 13 0
15 -6 9 -27 -12 -48 -9 -63 11 -63 8 0 13 4 9 9 -3 6 0 23 7 39 11 26 16 29
36 21 18 -7 22 -14 17 -31 -6 -19 -5 -21 6 -11 9 9 10 20 3 40 -12 34 -28 39
-53 14 -19 -19 -20 -19 -18 0 1 10 5 19 10 19 4 0 20 14 35 32 l27 32 6 -30
c6 -24 7 -25 8 -6 0 13 -4 32 -10 43 -8 16 -13 18 -25 8 -21 -17 -28 -5 -9 15
18 18 51 21 58 6 3 -6 4 -5 3 2 -3 16 -56 22 -76 9 -9 -6 -15 -26 -15 -53 0
-43 -1 -44 -30 -40 -23 3 -27 1 -15 -7 13 -9 12 -11 -4 -11 -12 0 -16 5 -12
15 3 8 -1 30 -10 50 -8 19 -11 35 -7 35 4 0 2 5 -5 12 -15 15 -16 38 -2 38 15
0 30 -44 18 -51 -7 -4 -6 -9 1 -13 6 -4 14 0 17 8 3 9 10 14 14 11 5 -3 11 -1
15 5 3 5 15 10 26 10 24 0 25 28 2 46 -17 13 -17 13 2 14 27 0 49 -15 41 -29
-5 -7 -1 -9 8 -5 27 10 18 31 -16 38 -21 4 -28 10 -22 16 15 15 77 -8 70 -27
-3 -8 -1 -11 4 -8 6 3 10 15 10 25 0 13 -8 20 -27 22 -16 2 -26 8 -23 13 3 6
16 9 30 7 24 -2 24 -2 6 13 -17 13 -17 15 -3 21 25 9 21 42 -5 47 l-23 4 22 9
c12 5 22 13 23 18 3 18 -24 23 -56 10 -18 -8 -37 -14 -41 -14 -15 1 52 34 71
35 11 1 22 7 24 15 3 9 0 10 -9 4 -11 -6 -10 -3 1 11 14 17 13 18 -4 11 -19
-6 -19 -6 -3 11 15 17 20 64 7 62 -3 0 -43 -16 -89 -34z m69 -20 c-7 -8 -18
-15 -24 -15 -6 0 -2 7 8 15 25 19 32 19 16 0z m-513 -45 c14 -11 23 -20 19
-20 -12 0 -76 29 -76 34 0 13 34 5 57 -14z m469 11 c-3 -5 -21 -14 -38 -20
l-33 -11 24 20 c23 20 57 28 47 11z m-506 -21 c22 -11 40 -23 40 -25 0 -7 -73
24 -84 36 -16 15 2 11 44 -11z m540 15 c0 -7 -58 -35 -72 -35 -7 1 3 9 22 20
35 19 50 24 50 15z m-523 -51 c-3 -3 -12 -4 -19 -1 -8 3 -5 6 6 6 11 1 17 -2
13 -5z m528 -3 c-6 -5 -23 -12 -40 -15 l-30 -6 30 14 c35 18 54 20 40 7z
m-535 -37 c0 -2 -9 -4 -20 -4 -11 0 -20 4 -20 9 0 5 9 7 20 4 11 -3 20 -7 20
-9z m515 6 c-3 -5 -16 -10 -28 -9 -21 0 -21 1 -2 9 28 12 37 12 30 0z m35 -20
c0 -5 -10 -10 -22 -10 -19 0 -20 2 -8 10 19 13 30 13 30 0z m-540 -10 c13 -8
13 -10 -2 -10 -9 0 -20 5 -23 10 -8 13 5 13 25 0z m480 0 c0 -5 -10 -10 -22
-10 -19 0 -20 2 -8 10 19 13 30 13 30 0z m-500 -26 c0 -2 -9 -4 -20 -4 -11 0
-20 4 -20 9 0 5 9 7 20 4 11 -3 20 -7 20 -9z m535 6 c-3 -5 -14 -10 -23 -10
-15 0 -15 2 -2 10 20 13 33 13 25 0z m-498 -6 c-3 -3 -12 -4 -19 -1 -8 3 -5 6
6 6 11 1 17 -2 13 -5z m440 0 c-3 -3 -12 -4 -19 -1 -8 3 -5 6 6 6 11 1 17 -2
13 -5z m-470 -20 c-3 -3 -12 -4 -19 -1 -8 3 -5 6 6 6 11 1 17 -2 13 -5z m500
0 c-3 -3 -12 -4 -19 -1 -8 3 -5 6 6 6 11 1 17 -2 13 -5z m-470 -20 c-3 -3 -12
-4 -19 -1 -8 3 -5 6 6 6 11 1 17 -2 13 -5z m38 -4 c3 -6 -1 -7 -9 -4 -18 7
-21 14 -7 14 6 0 13 -4 16 -10z m365 6 c0 -2 -7 -7 -16 -10 -8 -3 -12 -2 -9 4
6 10 25 14 25 6z m-260 -20 c0 11 13 -3 34 -38 l32 -58 18 36 c9 20 19 35 21
32 8 -7 -30 -77 -41 -78 -7 0 -14 10 -17 23 -4 12 -12 30 -20 41 -13 17 -15
16 -31 -18 -14 -30 -20 -35 -32 -25 -8 6 -14 21 -13 33 0 19 1 19 8 3 6 -18 7
-17 24 1 16 17 16 21 2 32 -8 7 -15 18 -15 24 0 6 7 2 15 -8 15 -20 15 -20 15
0z m156 -13 c-10 -10 -19 5 -10 18 6 11 8 11 12 0 2 -7 1 -15 -2 -18z m-6 -41
c17 -20 19 -21 23 -5 3 15 4 14 3 -2 -1 -11 -8 -21 -16 -22 -18 -3 -54 63 -43
80 5 8 9 5 11 -8 3 -11 13 -30 22 -43z m-280 24 c0 -3 -7 -12 -16 -20 -23 -23
-40 -19 -19 4 16 18 35 26 35 16z m425 -12 c9 -9 13 -19 10 -22 -3 -3 -15 4
-27 16 -13 12 -17 22 -11 22 6 0 19 -7 28 -16z m-395 -2 c0 -5 -9 -17 -20 -27
-16 -14 -20 -15 -20 -4 0 16 19 39 32 39 4 0 8 -4 8 -8z m358 -4 c7 -7 12 -19
12 -27 0 -11 -4 -10 -20 4 -21 19 -26 35 -12 35 4 0 13 -5 20 -12z m-333 -27
c-7 -23 -25 -29 -25 -8 0 14 21 39 28 33 2 -3 1 -14 -3 -25z m18 -51 c-8 -30
-21 -34 -15 -5 2 14 8 25 12 25 5 0 6 -9 3 -20z m257 11 c0 -5 3 -17 7 -27 4
-11 3 -15 -4 -11 -14 9 -24 47 -12 47 5 0 9 -4 9 -9z m133 -31 c-18 -16 -22
-17 -27 -4 -3 8 -2 13 3 10 5 -3 14 1 21 9 7 9 15 13 18 10 3 -3 -4 -14 -15
-25z m-485 -46 c4 2 7 -7 7 -20 0 -13 -2 -24 -4 -24 -11 0 -28 36 -23 49 4 10
7 11 10 3 2 -7 7 -10 10 -8z m57 6 c3 -6 -4 -10 -17 -10 -18 0 -20 2 -8 10 19
12 18 12 25 0z"/>
<path d="M205 490 c-10 -11 -15 -26 -11 -35 3 -9 1 -26 -5 -37 -10 -18 -8 -18
22 4 22 16 33 19 36 11 6 -18 23 -16 23 2 0 14 -12 20 -34 16 -5 -1 -6 5 -3
14 8 18 -4 20 -21 3 -9 -9 -12 -9 -12 -1 0 7 10 19 22 27 12 9 18 16 12 16 -6
0 -19 -9 -29 -20z"/>
<path d="M283 490 c12 -17 17 -46 18 -90 1 -77 6 -69 11 16 3 55 1 62 -21 79
l-25 19 17 -24z"/>
<path d="M325 500 c-3 -5 -2 -10 4 -10 5 0 13 5 16 10 3 6 2 10 -4 10 -5 0
-13 -4 -16 -10z"/>
<path d="M371 507 c2 -1 15 -11 29 -22 l25 -20 -19 23 c-11 12 -24 22 -29 22
-6 0 -8 -1 -6 -3z"/>
<path d="M380 465 c8 -10 10 -16 3 -12 -16 10 -43 -2 -43 -19 0 -8 5 -14 10
-14 6 0 10 5 10 10 0 17 25 11 48 -10 12 -12 22 -17 21 -13 -1 18 -36 67 -49
71 -13 5 -13 3 0 -13z"/>
<path d="M140 406 c0 -2 8 -10 18 -17 15 -13 16 -12 3 4 -13 16 -21 21 -21 13z"/>
<path d="M449 393 c-13 -16 -12 -17 4 -4 9 7 17 15 17 17 0 8 -8 3 -21 -13z"/>
<path d="M29 234 c19 -8 37 -12 40 -9 9 10 -22 25 -49 24 -23 0 -22 -1 9 -15z"/>
<path d="M171 66 c-9 -11 -10 -20 -1 -35 10 -20 20 -21 135 -21 115 0 125 1
135 21 22 41 -1 49 -135 49 -94 0 -125 -3 -134 -14z m259 -6 c0 -6 -48 -10
-125 -10 -77 0 -125 4 -125 10 0 6 48 10 125 10 77 0 125 -4 125 -10z m-102
-37 c-10 -2 -28 -2 -40 0 -13 2 -5 4 17 4 22 1 32 -1 23 -4z"/>
</g>
</svg>
